{
	"patcher" : 	{
		"fileversion" : 1,
		"appversion" : 		{
			"major" : 6,
			"minor" : 1,
			"revision" : 10,
			"architecture" : "x86"
		}
,
		"rect" : [ 121.0, 281.0, 1246.0, 595.0 ],
		"bgcolor" : [ 1.0, 1.0, 1.0, 0.0 ],
		"bglocked" : 0,
		"openinpresentation" : 0,
		"default_fontsize" : 12.0,
		"default_fontface" : 0,
		"default_fontname" : "Arial",
		"gridonopen" : 0,
		"gridsize" : [ 5.0, 5.0 ],
		"gridsnaponopen" : 0,
		"statusbarvisible" : 2,
		"toolbarvisible" : 1,
		"boxanimatetime" : 200,
		"imprint" : 0,
		"enablehscroll" : 1,
		"enablevscroll" : 1,
		"devicewidth" : 0.0,
		"description" : "",
		"digest" : "",
		"tags" : "",
		"boxes" : [ 			{
				"box" : 				{
					"fontname" : "Arial",
					"fontsize" : 12.0,
					"id" : "obj-7",
					"maxclass" : "message",
					"numinlets" : 2,
					"numoutlets" : 1,
					"outlettype" : [ "" ],
					"patching_rect" : [ 1053.0, 391.0, 123.0, 18.0 ],
					"text" : "bgcolor 0.4 0.8 0.4 1."
				}

			}
, 			{
				"box" : 				{
					"fontname" : "Arial",
					"fontsize" : 12.0,
					"frgb" : 0.0,
					"id" : "obj-14",
					"maxclass" : "comment",
					"numinlets" : 1,
					"numoutlets" : 0,
					"patching_rect" : [ 815.0, 102.0, 49.0, 20.0 ],
					"text" : "volume",
					"textcolor" : [ 1.0, 1.0, 1.0, 1.0 ]
				}

			}
, 			{
				"box" : 				{
					"fontname" : "Arial",
					"fontsize" : 12.0,
					"hidden" : 1,
					"id" : "obj-11",
					"maxclass" : "newobj",
					"numinlets" : 1,
					"numoutlets" : 1,
					"outlettype" : [ "" ],
					"patching_rect" : [ 888.5, 204.0, 74.0, 20.0 ],
					"text" : "prepend set"
				}

			}
, 			{
				"box" : 				{
					"contdata" : 1,
					"ghostbar" : 70,
					"id" : "obj-9",
					"maxclass" : "multislider",
					"numinlets" : 1,
					"numoutlets" : 2,
					"outlettype" : [ "", "" ],
					"parameter_enable" : 0,
					"patching_rect" : [ 804.5, 120.0, 69.5, 166.0 ],
					"setminmax" : [ 0.0, 100.0 ]
				}

			}
, 			{
				"box" : 				{
					"bgcolor" : [ 1.0, 0.747858, 0.71544, 1.0 ],
					"bgoncolor" : [ 0.056616, 0.725161, 0.001578, 1.0 ],
					"bgovercolor" : [ 1.0, 0.478227, 0.481179, 1.0 ],
					"bgoveroncolor" : [ 0.018529, 0.545559, 0.0, 1.0 ],
					"border" : 1,
					"fontname" : "Arial",
					"fontsize" : 12.0,
					"id" : "obj-1",
					"maxclass" : "textbutton",
					"mode" : 1,
					"numinlets" : 1,
					"numoutlets" : 3,
					"outlettype" : [ "", "", "int" ],
					"parameter_enable" : 0,
					"patching_rect" : [ 804.0, 70.0, 53.0, 17.0 ],
					"presentation" : 1,
					"presentation_rect" : [ 166.0, 153.0, 100.0, 42.0 ],
					"rounded" : 6.0,
					"text" : "LOOP",
					"texton" : "LOOP"
				}

			}
, 			{
				"box" : 				{
					"args" : [ "#1", "#2", "/sample8" ],
					"id" : "obj-28",
					"maxclass" : "bpatcher",
					"name" : "LAM.A.Sampler.PresetEditor.SamplePicker.maxpat",
					"numinlets" : 0,
					"numoutlets" : 0,
					"patching_rect" : [ 604.0, 206.0, 191.0, 143.0 ]
				}

			}
, 			{
				"box" : 				{
					"args" : [ "#1", "#2", "/sample7" ],
					"id" : "obj-29",
					"maxclass" : "bpatcher",
					"name" : "LAM.A.Sampler.PresetEditor.SamplePicker.maxpat",
					"numinlets" : 0,
					"numoutlets" : 0,
					"patching_rect" : [ 604.0, 55.0, 191.0, 143.0 ]
				}

			}
, 			{
				"box" : 				{
					"args" : [ "#1", "#2", "/sample6" ],
					"id" : "obj-30",
					"maxclass" : "bpatcher",
					"name" : "LAM.A.Sampler.PresetEditor.SamplePicker.maxpat",
					"numinlets" : 0,
					"numoutlets" : 0,
					"patching_rect" : [ 406.0, 204.0, 191.0, 143.0 ]
				}

			}
, 			{
				"box" : 				{
					"args" : [ "#1", "#2", "/sample5" ],
					"id" : "obj-31",
					"maxclass" : "bpatcher",
					"name" : "LAM.A.Sampler.PresetEditor.SamplePicker.maxpat",
					"numinlets" : 0,
					"numoutlets" : 0,
					"patching_rect" : [ 406.0, 55.0, 191.0, 143.0 ]
				}

			}
, 			{
				"box" : 				{
					"args" : [ "#1", "#2", "/sample4" ],
					"id" : "obj-25",
					"maxclass" : "bpatcher",
					"name" : "LAM.A.Sampler.PresetEditor.SamplePicker.maxpat",
					"numinlets" : 0,
					"numoutlets" : 0,
					"patching_rect" : [ 208.0, 204.0, 191.0, 143.0 ]
				}

			}
, 			{
				"box" : 				{
					"args" : [ "#1", "#2", "/sample3" ],
					"id" : "obj-27",
					"maxclass" : "bpatcher",
					"name" : "LAM.A.Sampler.PresetEditor.SamplePicker.maxpat",
					"numinlets" : 0,
					"numoutlets" : 0,
					"patching_rect" : [ 208.0, 55.0, 191.0, 143.0 ]
				}

			}
, 			{
				"box" : 				{
					"args" : [ "#1", "#2", "/sample2" ],
					"id" : "obj-24",
					"maxclass" : "bpatcher",
					"name" : "LAM.A.Sampler.PresetEditor.SamplePicker.maxpat",
					"numinlets" : 0,
					"numoutlets" : 0,
					"patching_rect" : [ 10.0, 202.0, 191.0, 143.0 ]
				}

			}
, 			{
				"box" : 				{
					"args" : [ "#1", "#2", "/sample1" ],
					"id" : "obj-22",
					"maxclass" : "bpatcher",
					"name" : "LAM.A.Sampler.PresetEditor.SamplePicker.maxpat",
					"numinlets" : 0,
					"numoutlets" : 0,
					"patching_rect" : [ 10.0, 55.0, 191.0, 143.0 ]
				}

			}
, 			{
				"box" : 				{
					"fontname" : "Arial",
					"fontsize" : 12.0,
					"id" : "obj-26",
					"maxclass" : "newobj",
					"numinlets" : 1,
					"numoutlets" : 1,
					"outlettype" : [ "open" ],
					"patching_rect" : [ 800.0, 360.0, 44.0, 20.0 ],
					"text" : "t open"
				}

			}
, 			{
				"box" : 				{
					"fontname" : "Arial",
					"fontsize" : 12.0,
					"id" : "obj-23",
					"maxclass" : "newobj",
					"numinlets" : 1,
					"numoutlets" : 1,
					"outlettype" : [ "" ],
					"patching_rect" : [ 800.0, 386.0, 53.0, 20.0 ],
					"text" : "pcontrol"
				}

			}
, 			{
				"box" : 				{
					"fontname" : "Arial",
					"fontsize" : 12.0,
					"id" : "obj-21",
					"maxclass" : "newobj",
					"numinlets" : 2,
					"numoutlets" : 0,
					"patcher" : 					{
						"fileversion" : 1,
						"appversion" : 						{
							"major" : 6,
							"minor" : 1,
							"revision" : 10,
							"architecture" : "x86"
						}
,
						"rect" : [ 105.0, 267.0, 1240.0, 544.0 ],
						"bglocked" : 0,
						"openinpresentation" : 0,
						"default_fontsize" : 12.0,
						"default_fontface" : 0,
						"default_fontname" : "Arial",
						"gridonopen" : 0,
						"gridsize" : [ 15.0, 15.0 ],
						"gridsnaponopen" : 0,
						"statusbarvisible" : 2,
						"toolbarvisible" : 1,
						"boxanimatetime" : 200,
						"imprint" : 0,
						"enablehscroll" : 1,
						"enablevscroll" : 1,
						"devicewidth" : 0.0,
						"description" : "",
						"digest" : "",
						"tags" : "",
						"boxes" : [ 							{
								"box" : 								{
									"fontname" : "Arial",
									"fontsize" : 18.0,
									"frgb" : 0.0,
									"id" : "obj-2",
									"maxclass" : "comment",
									"numinlets" : 1,
									"numoutlets" : 0,
									"patching_rect" : [ 20.0, 10.0, 246.0, 27.0 ],
									"presentation" : 1,
									"presentation_rect" : [ 7.0, 8.0, 246.0, 27.0 ],
									"text" : "POSITION & SCALING",
									"textcolor" : [ 1.0, 1.0, 1.0, 1.0 ]
								}

							}
, 							{
								"box" : 								{
									"args" : [ "#1", "#2", "/waveform/scale/y" ],
									"id" : "obj-44",
									"maxclass" : "bpatcher",
									"name" : "SDK.float.GUI.maxpat",
									"numinlets" : 2,
									"numoutlets" : 2,
									"outlettype" : [ "float", "" ],
									"patching_rect" : [ 222.0, 67.550034, 189.0, 18.0 ],
									"presentation" : 1,
									"presentation_rect" : [ 229.0, 60.550049, 189.0, 18.0 ]
								}

							}
, 							{
								"box" : 								{
									"args" : [ "#1", "#2", "/waveform/scale/x" ],
									"id" : "obj-45",
									"maxclass" : "bpatcher",
									"name" : "SDK.float.GUI.maxpat",
									"numinlets" : 2,
									"numoutlets" : 2,
									"outlettype" : [ "float", "" ],
									"patching_rect" : [ 222.0, 50.5, 189.0, 18.0 ],
									"presentation" : 1,
									"presentation_rect" : [ 229.0, 43.5, 189.0, 18.0 ]
								}

							}
, 							{
								"box" : 								{
									"args" : [ "#1", "#2", "/waveform/position/y" ],
									"id" : "obj-47",
									"maxclass" : "bpatcher",
									"name" : "SDK.float.GUI.maxpat",
									"numinlets" : 2,
									"numoutlets" : 2,
									"outlettype" : [ "float", "" ],
									"patching_rect" : [ 11.0, 67.550034, 189.0, 18.0 ],
									"presentation" : 1,
									"presentation_rect" : [ 18.0, 60.550049, 189.0, 18.0 ]
								}

							}
, 							{
								"box" : 								{
									"args" : [ "#1", "#2", "/waveform/position/x" ],
									"id" : "obj-48",
									"maxclass" : "bpatcher",
									"name" : "SDK.float.GUI.maxpat",
									"numinlets" : 2,
									"numoutlets" : 2,
									"outlettype" : [ "float", "" ],
									"patching_rect" : [ 11.0, 50.5, 189.0, 18.0 ],
									"presentation" : 1,
									"presentation_rect" : [ 18.0, 43.5, 189.0, 18.0 ]
								}

							}
, 							{
								"box" : 								{
									"border" : 1,
									"fontname" : "Arial",
									"fontsize" : 12.0,
									"id" : "obj-72",
									"maxclass" : "textbutton",
									"mode" : 1,
									"numinlets" : 1,
									"numoutlets" : 3,
									"outlettype" : [ "", "", "int" ],
									"parameter_enable" : 0,
									"patching_rect" : [ 857.0, 215.0, 49.0, 21.0 ],
									"presentation" : 1,
									"presentation_rect" : [ 972.0, 129.0, 49.0, 16.0 ],
									"rounded" : 8.0,
									"text" : "OFF",
									"texton" : "ON"
								}

							}
, 							{
								"box" : 								{
									"border" : 1,
									"fontname" : "Arial",
									"fontsize" : 12.0,
									"id" : "obj-70",
									"maxclass" : "textbutton",
									"mode" : 1,
									"numinlets" : 1,
									"numoutlets" : 3,
									"outlettype" : [ "", "", "int" ],
									"parameter_enable" : 0,
									"patching_rect" : [ 675.0, 215.0, 49.0, 21.0 ],
									"presentation" : 1,
									"presentation_rect" : [ 765.593811, 129.0, 49.0, 16.0 ],
									"rounded" : 8.0,
									"text" : "OFF",
									"texton" : "ON"
								}

							}
, 							{
								"box" : 								{
									"border" : 1,
									"fontname" : "Arial",
									"fontsize" : 12.0,
									"id" : "obj-68",
									"maxclass" : "textbutton",
									"mode" : 1,
									"numinlets" : 1,
									"numoutlets" : 3,
									"outlettype" : [ "", "", "int" ],
									"parameter_enable" : 0,
									"patching_rect" : [ 469.0, 215.0, 49.0, 21.0 ],
									"presentation" : 1,
									"presentation_rect" : [ 559.187622, 129.0, 49.0, 16.0 ],
									"rounded" : 8.0,
									"text" : "OFF",
									"texton" : "ON"
								}

							}
, 							{
								"box" : 								{
									"args" : [ "#1", "#2", "/playbar" ],
									"id" : "obj-96",
									"maxclass" : "bpatcher",
									"name" : "LAM.A.Sampler.PresetEditor.ColorPicker.maxpat",
									"numinlets" : 2,
									"numoutlets" : 2,
									"outlettype" : [ "", "" ],
									"patching_rect" : [ 904.0, 281.5, 197.0, 166.0 ],
									"presentation" : 1,
									"presentation_rect" : [ 833.814575, 127.0, 191.868469, 188.0 ]
								}

							}
, 							{
								"box" : 								{
									"args" : [ "#1", "#2", "/text" ],
									"id" : "obj-95",
									"maxclass" : "bpatcher",
									"name" : "LAM.A.Sampler.PresetEditor.ColorPicker.maxpat",
									"numinlets" : 2,
									"numoutlets" : 2,
									"outlettype" : [ "", "" ],
									"patching_rect" : [ 682.0, 281.5, 197.0, 166.0 ],
									"presentation" : 1,
									"presentation_rect" : [ 627.85437, 127.0, 190.0, 187.0 ]
								}

							}
, 							{
								"box" : 								{
									"args" : [ "#1", "#2", "/grid" ],
									"id" : "obj-94",
									"maxclass" : "bpatcher",
									"name" : "LAM.A.Sampler.PresetEditor.ColorPicker.maxpat",
									"numinlets" : 2,
									"numoutlets" : 2,
									"outlettype" : [ "", "" ],
									"patching_rect" : [ 469.0, 281.5, 197.0, 166.0 ],
									"presentation" : 1,
									"presentation_rect" : [ 421.894135, 127.0, 190.0, 187.0 ]
								}

							}
, 							{
								"box" : 								{
									"comment" : "",
									"id" : "obj-91",
									"maxclass" : "inlet",
									"numinlets" : 0,
									"numoutlets" : 1,
									"outlettype" : [ "" ],
									"patching_rect" : [ 761.0, 10.0, 25.0, 25.0 ]
								}

							}
, 							{
								"box" : 								{
									"args" : [ "#1", "#2", "/waveform" ],
									"id" : "obj-30",
									"maxclass" : "bpatcher",
									"name" : "LAM.A.Sampler.PresetEditor.ColorPicker.maxpat",
									"numinlets" : 2,
									"numoutlets" : 2,
									"outlettype" : [ "", "" ],
									"patching_rect" : [ 20.0, 281.5, 197.0, 166.0 ],
									"presentation" : 1,
									"presentation_rect" : [ 7.0, 127.0, 191.0, 188.0 ]
								}

							}
, 							{
								"box" : 								{
									"color" : [ 0.0, 0.84, 0.066288, 1.0 ],
									"fontname" : "Arial",
									"fontsize" : 12.0,
									"id" : "obj-73",
									"maxclass" : "newobj",
									"numinlets" : 2,
									"numoutlets" : 1,
									"outlettype" : [ "" ],
									"patching_rect" : [ 857.0, 242.0, 253.0, 20.0 ],
									"text" : "SDK.toggle #1 #2 /playbar/display"
								}

							}
, 							{
								"box" : 								{
									"color" : [ 0.0, 0.84, 0.066288, 1.0 ],
									"fontname" : "Arial",
									"fontsize" : 12.0,
									"id" : "obj-71",
									"maxclass" : "newobj",
									"numinlets" : 2,
									"numoutlets" : 1,
									"outlettype" : [ "" ],
									"patching_rect" : [ 675.0, 242.0, 233.0, 20.0 ],
									"text" : "SDK.toggle #1 #2 /text/display"
								}

							}
, 							{
								"box" : 								{
									"color" : [ 0.0, 0.84, 0.066288, 1.0 ],
									"fontname" : "Arial",
									"fontsize" : 12.0,
									"id" : "obj-69",
									"maxclass" : "newobj",
									"numinlets" : 2,
									"numoutlets" : 1,
									"outlettype" : [ "" ],
									"patching_rect" : [ 469.0, 242.0, 234.0, 20.0 ],
									"text" : "SDK.toggle #1 #2 /grid/display"
								}

							}
, 							{
								"box" : 								{
									"border" : 1,
									"fontname" : "Arial",
									"fontsize" : 12.0,
									"id" : "obj-66",
									"maxclass" : "textbutton",
									"mode" : 1,
									"numinlets" : 1,
									"numoutlets" : 3,
									"outlettype" : [ "", "", "int" ],
									"parameter_enable" : 0,
									"patching_rect" : [ 240.0, 215.0, 49.0, 21.0 ],
									"presentation" : 1,
									"presentation_rect" : [ 352.781433, 129.0, 49.0, 16.0 ],
									"rounded" : 8.0,
									"text" : "OFF",
									"texton" : "ON"
								}

							}
, 							{
								"box" : 								{
									"color" : [ 0.0, 0.84, 0.066288, 1.0 ],
									"fontname" : "Arial",
									"fontsize" : 12.0,
									"id" : "obj-67",
									"maxclass" : "newobj",
									"numinlets" : 2,
									"numoutlets" : 1,
									"outlettype" : [ "" ],
									"patching_rect" : [ 240.0, 242.0, 278.0, 20.0 ],
									"text" : "SDK.toggle #1 #2 /selectshape/display"
								}

							}
, 							{
								"box" : 								{
									"fontname" : "Arial",
									"fontsize" : 18.0,
									"frgb" : 0.0,
									"id" : "obj-61",
									"maxclass" : "comment",
									"numinlets" : 1,
									"numoutlets" : 0,
									"patching_rect" : [ 20.0, 238.5, 246.0, 27.0 ],
									"presentation" : 1,
									"presentation_rect" : [ 7.0, 93.0, 246.0, 27.0 ],
									"text" : "AFFICHAGE ET COULEURS",
									"textcolor" : [ 1.0, 1.0, 1.0, 1.0 ]
								}

							}
, 							{
								"box" : 								{
									"fontname" : "Arial",
									"fontsize" : 12.0,
									"id" : "obj-54",
									"maxclass" : "newobj",
									"numinlets" : 1,
									"numoutlets" : 1,
									"outlettype" : [ "" ],
									"patching_rect" : [ 552.0, 10.0, 141.0, 20.0 ],
									"text" : "loadmess presentation 1"
								}

							}
, 							{
								"box" : 								{
									"fontname" : "Arial",
									"fontsize" : 12.0,
									"id" : "obj-53",
									"maxclass" : "newobj",
									"numinlets" : 1,
									"numoutlets" : 2,
									"outlettype" : [ "", "" ],
									"patching_rect" : [ 552.0, 36.0, 69.0, 20.0 ],
									"save" : [ "#N", "thispatcher", ";", "#Q", "end", ";" ],
									"text" : "thispatcher"
								}

							}
, 							{
								"box" : 								{
									"comment" : "",
									"id" : "obj-1",
									"maxclass" : "inlet",
									"numinlets" : 0,
									"numoutlets" : 1,
									"outlettype" : [ "" ],
									"patching_rect" : [ 703.0, 10.0, 25.0, 25.0 ]
								}

							}
, 							{
								"box" : 								{
									"args" : [ "#1", "#2", "/selectshape" ],
									"id" : "obj-93",
									"maxclass" : "bpatcher",
									"name" : "LAM.A.Sampler.PresetEditor.ColorPicker.maxpat",
									"numinlets" : 2,
									"numoutlets" : 2,
									"outlettype" : [ "", "" ],
									"patching_rect" : [ 240.0, 281.5, 197.0, 166.0 ],
									"presentation" : 1,
									"presentation_rect" : [ 213.951447, 127.0, 192.0, 188.0 ]
								}

							}
, 							{
								"box" : 								{
									"bgcolor" : [ 0.4, 0.8, 0.4, 1.0 ],
									"id" : "obj-92",
									"maxclass" : "panel",
									"numinlets" : 1,
									"numoutlets" : 0,
									"patching_rect" : [ 761.0, 36.0, 169.0, 51.0 ],
									"presentation" : 1,
									"presentation_rect" : [ 1.0, 1.0, 1036.0, 325.0 ]
								}

							}
 ],
						"lines" : [ 							{
								"patchline" : 								{
									"destination" : [ "obj-93", 1 ],
									"disabled" : 0,
									"hidden" : 1,
									"source" : [ "obj-30", 1 ]
								}

							}
, 							{
								"patchline" : 								{
									"destination" : [ "obj-44", 1 ],
									"disabled" : 0,
									"hidden" : 1,
									"source" : [ "obj-45", 1 ]
								}

							}
, 							{
								"patchline" : 								{
									"destination" : [ "obj-45", 1 ],
									"disabled" : 0,
									"hidden" : 0,
									"source" : [ "obj-47", 1 ]
								}

							}
, 							{
								"patchline" : 								{
									"destination" : [ "obj-47", 1 ],
									"disabled" : 0,
									"hidden" : 1,
									"source" : [ "obj-48", 1 ]
								}

							}
, 							{
								"patchline" : 								{
									"destination" : [ "obj-53", 0 ],
									"disabled" : 0,
									"hidden" : 0,
									"source" : [ "obj-54", 0 ]
								}

							}
, 							{
								"patchline" : 								{
									"destination" : [ "obj-67", 0 ],
									"disabled" : 0,
									"hidden" : 0,
									"source" : [ "obj-66", 0 ]
								}

							}
, 							{
								"patchline" : 								{
									"destination" : [ "obj-66", 0 ],
									"disabled" : 0,
									"hidden" : 0,
									"source" : [ "obj-67", 0 ]
								}

							}
, 							{
								"patchline" : 								{
									"destination" : [ "obj-69", 0 ],
									"disabled" : 0,
									"hidden" : 0,
									"source" : [ "obj-68", 0 ]
								}

							}
, 							{
								"patchline" : 								{
									"destination" : [ "obj-68", 0 ],
									"disabled" : 0,
									"hidden" : 0,
									"source" : [ "obj-69", 0 ]
								}

							}
, 							{
								"patchline" : 								{
									"destination" : [ "obj-71", 0 ],
									"disabled" : 0,
									"hidden" : 0,
									"source" : [ "obj-70", 0 ]
								}

							}
, 							{
								"patchline" : 								{
									"destination" : [ "obj-70", 0 ],
									"disabled" : 0,
									"hidden" : 0,
									"source" : [ "obj-71", 0 ]
								}

							}
, 							{
								"patchline" : 								{
									"destination" : [ "obj-73", 0 ],
									"disabled" : 0,
									"hidden" : 0,
									"source" : [ "obj-72", 0 ]
								}

							}
, 							{
								"patchline" : 								{
									"destination" : [ "obj-72", 0 ],
									"disabled" : 0,
									"hidden" : 0,
									"source" : [ "obj-73", 0 ]
								}

							}
, 							{
								"patchline" : 								{
									"destination" : [ "obj-92", 0 ],
									"disabled" : 0,
									"hidden" : 0,
									"source" : [ "obj-91", 0 ]
								}

							}
, 							{
								"patchline" : 								{
									"destination" : [ "obj-94", 1 ],
									"disabled" : 0,
									"hidden" : 1,
									"source" : [ "obj-93", 1 ]
								}

							}
, 							{
								"patchline" : 								{
									"destination" : [ "obj-95", 1 ],
									"disabled" : 0,
									"hidden" : 1,
									"source" : [ "obj-94", 1 ]
								}

							}
, 							{
								"patchline" : 								{
									"destination" : [ "obj-96", 1 ],
									"disabled" : 0,
									"hidden" : 1,
									"source" : [ "obj-95", 1 ]
								}

							}
, 							{
								"patchline" : 								{
									"destination" : [ "obj-30", 1 ],
									"disabled" : 0,
									"hidden" : 1,
									"source" : [ "obj-96", 1 ]
								}

							}
 ]
					}
,
					"patching_rect" : [ 800.0, 414.0, 112.0, 20.0 ],
					"saved_object_attributes" : 					{
						"default_fontface" : 0,
						"default_fontname" : "Arial",
						"default_fontsize" : 12.0,
						"description" : "",
						"digest" : "",
						"fontface" : 0,
						"fontname" : "Arial",
						"fontsize" : 12.0,
						"globalpatchername" : "",
						"tags" : ""
					}
,
					"text" : "p OptionsAffichage"
				}

			}
, 			{
				"box" : 				{
					"bgcolor" : [ 0.0, 0.086275, 0.2, 1.0 ],
					"bgovercolor" : [ 0.0, 0.219608, 0.501961, 1.0 ],
					"fontname" : "Arial",
					"fontsize" : 12.0,
					"id" : "obj-20",
					"maxclass" : "textbutton",
					"numinlets" : 1,
					"numoutlets" : 3,
					"outlettype" : [ "", "", "int" ],
					"parameter_enable" : 0,
					"patching_rect" : [ 800.0, 324.0, 74.0, 20.0 ],
					"text" : "Affichage",
					"textcolor" : [ 1.0, 1.0, 1.0, 1.0 ]
				}

			}
, 			{
				"box" : 				{
					"args" : [ "#1", "#2", "/loop" ],
					"id" : "obj-13",
					"maxclass" : "bpatcher",
					"name" : "SDK.toggle.GUI.maxpat",
					"numinlets" : 2,
					"numoutlets" : 2,
					"offset" : [ -140.0, 0.0 ],
					"outlettype" : [ "", "" ],
					"patching_rect" : [ 859.0, 70.0, 20.5, 17.0 ]
				}

			}
, 			{
				"box" : 				{
					"fontname" : "Arial",
					"fontsize" : 12.0,
					"id" : "obj-10",
					"maxclass" : "newobj",
					"numinlets" : 1,
					"numoutlets" : 0,
					"patching_rect" : [ 898.0, 88.0, 71.0, 20.0 ],
					"text" : "s #2-IniGUI"
				}

			}
, 			{
				"box" : 				{
					"fontname" : "Arial",
					"fontsize" : 12.0,
					"id" : "obj-5",
					"maxclass" : "newobj",
					"numinlets" : 1,
					"numoutlets" : 1,
					"outlettype" : [ "bang" ],
					"patching_rect" : [ 898.0, 61.0, 60.0, 20.0 ],
					"text" : "loadbang"
				}

			}
, 			{
				"box" : 				{
					"fontname" : "Arial",
					"fontsize" : 12.0,
					"frgb" : 0.0,
					"id" : "obj-2",
					"maxclass" : "comment",
					"numinlets" : 1,
					"numoutlets" : 0,
					"patching_rect" : [ 1073.0, 190.0, 25.0, 20.0 ],
					"text" : "%",
					"textcolor" : [ 1.0, 1.0, 1.0, 1.0 ]
				}

			}
, 			{
				"box" : 				{
					"fontname" : "Arial",
					"fontsize" : 12.0,
					"id" : "obj-4",
					"maxclass" : "newobj",
					"numinlets" : 0,
					"numoutlets" : 3,
					"outlettype" : [ "", "", "" ],
					"patching_rect" : [ 917.5, 296.0, 289.0, 20.0 ],
					"text" : "SDK.synth.GUI.system #1 #2 #0"
				}

			}
, 			{
				"box" : 				{
					"fontname" : "Arial",
					"fontsize" : 12.0,
					"id" : "obj-201",
					"maxclass" : "newobj",
					"numinlets" : 1,
					"numoutlets" : 2,
					"outlettype" : [ "", "" ],
					"patching_rect" : [ 917.5, 324.0, 69.0, 20.0 ],
					"save" : [ "#N", "thispatcher", ";", "#Q", "end", ";" ],
					"text" : "thispatcher"
				}

			}
, 			{
				"box" : 				{
					"args" : [ "#1", "#2", "/level" ],
					"id" : "obj-6",
					"maxclass" : "bpatcher",
					"name" : "SDK.float.GUI.maxpat",
					"numinlets" : 2,
					"numoutlets" : 2,
					"offset" : [ -120.0, 0.0 ],
					"outlettype" : [ "float", "" ],
					"patching_rect" : [ 804.5, 286.0, 69.5, 19.0 ]
				}

			}
, 			{
				"box" : 				{
					"fontname" : "Arial",
					"fontsize" : 9.0,
					"hidden" : 1,
					"id" : "obj-125",
					"maxclass" : "newobj",
					"numinlets" : 1,
					"numoutlets" : 0,
					"patching_rect" : [ 1106.0, 223.0, 60.0, 17.0 ],
					"text" : "s #2-Clean"
				}

			}
, 			{
				"box" : 				{
					"hidden" : 1,
					"id" : "obj-126",
					"maxclass" : "button",
					"numinlets" : 1,
					"numoutlets" : 1,
					"outlettype" : [ "bang" ],
					"patching_rect" : [ 1106.0, 168.0, 43.0, 43.0 ]
				}

			}
, 			{
				"box" : 				{
					"comment" : "",
					"id" : "obj-130",
					"maxclass" : "inlet",
					"numinlets" : 0,
					"numoutlets" : 1,
					"outlettype" : [ "" ],
					"patching_rect" : [ 1297.0, 42.0, 32.0, 32.0 ]
				}

			}
, 			{
				"box" : 				{
					"background" : 1,
					"bgcolor" : [ 0.4, 0.8, 0.4, 1.0 ],
					"id" : "obj-149",
					"maxclass" : "panel",
					"numinlets" : 1,
					"numoutlets" : 0,
					"patching_rect" : [ 5.0, 50.0, 880.0, 300.0 ],
					"rounded" : 10
				}

			}
 ],
		"lines" : [ 			{
				"patchline" : 				{
					"destination" : [ "obj-13", 0 ],
					"disabled" : 0,
					"hidden" : 1,
					"source" : [ "obj-1", 0 ]
				}

			}
, 			{
				"patchline" : 				{
					"destination" : [ "obj-9", 0 ],
					"disabled" : 0,
					"hidden" : 1,
					"source" : [ "obj-11", 0 ]
				}

			}
, 			{
				"patchline" : 				{
					"destination" : [ "obj-125", 0 ],
					"disabled" : 0,
					"hidden" : 1,
					"source" : [ "obj-126", 0 ]
				}

			}
, 			{
				"patchline" : 				{
					"destination" : [ "obj-1", 0 ],
					"disabled" : 0,
					"hidden" : 1,
					"source" : [ "obj-13", 0 ]
				}

			}
, 			{
				"patchline" : 				{
					"destination" : [ "obj-26", 0 ],
					"disabled" : 0,
					"hidden" : 1,
					"source" : [ "obj-20", 0 ]
				}

			}
, 			{
				"patchline" : 				{
					"destination" : [ "obj-21", 0 ],
					"disabled" : 0,
					"hidden" : 0,
					"source" : [ "obj-23", 0 ]
				}

			}
, 			{
				"patchline" : 				{
					"destination" : [ "obj-23", 0 ],
					"disabled" : 0,
					"hidden" : 0,
					"source" : [ "obj-26", 0 ]
				}

			}
, 			{
				"patchline" : 				{
					"destination" : [ "obj-149", 0 ],
					"disabled" : 0,
					"hidden" : 1,
					"source" : [ "obj-4", 1 ]
				}

			}
, 			{
				"patchline" : 				{
					"destination" : [ "obj-201", 0 ],
					"disabled" : 0,
					"hidden" : 0,
					"source" : [ "obj-4", 0 ]
				}

			}
, 			{
				"patchline" : 				{
					"destination" : [ "obj-21", 1 ],
					"disabled" : 0,
					"hidden" : 0,
					"source" : [ "obj-4", 1 ]
				}

			}
, 			{
				"patchline" : 				{
					"destination" : [ "obj-10", 0 ],
					"disabled" : 0,
					"hidden" : 0,
					"source" : [ "obj-5", 0 ]
				}

			}
, 			{
				"patchline" : 				{
					"destination" : [ "obj-11", 0 ],
					"disabled" : 0,
					"hidden" : 1,
					"source" : [ "obj-6", 0 ]
				}

			}
, 			{
				"patchline" : 				{
					"destination" : [ "obj-149", 0 ],
					"disabled" : 0,
					"hidden" : 1,
					"source" : [ "obj-7", 0 ]
				}

			}
, 			{
				"patchline" : 				{
					"destination" : [ "obj-21", 1 ],
					"disabled" : 0,
					"hidden" : 1,
					"source" : [ "obj-7", 0 ]
				}

			}
, 			{
				"patchline" : 				{
					"destination" : [ "obj-6", 0 ],
					"disabled" : 0,
					"hidden" : 0,
					"source" : [ "obj-9", 0 ]
				}

			}
 ],
		"dependency_cache" : [ 			{
				"name" : "SDK.float.GUI.maxpat",
				"type" : "JSON",
				"implicit" : 1
			}
, 			{
				"name" : "r.d2.maxpat",
				"type" : "JSON",
				"implicit" : 1
			}
, 			{
				"name" : "vd.maxpat",
				"type" : "JSON",
				"implicit" : 1
			}
, 			{
				"name" : "sw.d2.maxpat",
				"type" : "JSON",
				"implicit" : 1
			}
, 			{
				"name" : "s.d2.maxpat",
				"type" : "JSON",
				"implicit" : 1
			}
, 			{
				"name" : "SDK.synth.GUI.system.maxpat",
				"type" : "JSON",
				"implicit" : 1
			}
, 			{
				"name" : "SDK.toggle.GUI.maxpat",
				"type" : "JSON",
				"implicit" : 1
			}
, 			{
				"name" : "LAM.A.Sampler.PresetEditor.ColorPicker.maxpat",
				"bootpath" : "/Applications/MM4/LAM-Atelier/MeMaSynth/LAM.A.Sampler/ressources",
				"patcherrelativepath" : ".",
				"type" : "JSON",
				"implicit" : 1
			}
, 			{
				"name" : "SDK.float.maxpat",
				"type" : "JSON",
				"implicit" : 1
			}
, 			{
				"name" : "SDK.toggle.maxpat",
				"type" : "JSON",
				"implicit" : 1
			}
, 			{
				"name" : "LAM.A.Sampler.PresetEditor.SamplePicker.maxpat",
				"bootpath" : "/Applications/MM4/LAM-Atelier/MeMaSynth/LAM.A.Sampler/ressources",
				"patcherrelativepath" : ".",
				"type" : "JSON",
				"implicit" : 1
			}
, 			{
				"name" : "SDK.buffer.GUI.maxpat",
				"type" : "JSON",
				"implicit" : 1
			}
, 			{
				"name" : "sw.maxpat",
				"type" : "JSON",
				"implicit" : 1
			}
, 			{
				"name" : "panel.mxo",
				"type" : "iLaX"
			}
, 			{
				"name" : "button.mxo",
				"type" : "iLaX"
			}
, 			{
				"name" : "textbutton.mxo",
				"type" : "iLaX"
			}
, 			{
				"name" : "number.mxo",
				"type" : "iLaX"
			}
, 			{
				"name" : "message.mxo",
				"type" : "iLaX"
			}
, 			{
				"name" : "comment.mxo",
				"type" : "iLaX"
			}
, 			{
				"name" : "combine.mxo",
				"type" : "iLaX"
			}
, 			{
				"name" : "prepend.mxo",
				"type" : "iLaX"
			}
, 			{
				"name" : "toggle.mxo",
				"type" : "iLaX"
			}
, 			{
				"name" : "patcherargs.mxo",
				"type" : "iLaX"
			}
, 			{
				"name" : "tosymbol.mxo",
				"type" : "iLaX"
			}
, 			{
				"name" : "fromsymbol.mxo",
				"type" : "iLaX"
			}
, 			{
				"name" : "append.mxo",
				"type" : "iLaX"
			}
, 			{
				"name" : "iter.mxo",
				"type" : "iLaX"
			}
, 			{
				"name" : "sprintf.mxo",
				"type" : "iLaX"
			}
, 			{
				"name" : "zl.mxo",
				"type" : "iLaX"
			}
, 			{
				"name" : "hint.mxo",
				"type" : "iLaX"
			}
, 			{
				"name" : "loadmess.mxo",
				"type" : "iLaX"
			}
, 			{
				"name" : "deferlow.mxo",
				"type" : "iLaX"
			}
, 			{
				"name" : "coll.mxo",
				"type" : "iLaX"
			}
, 			{
				"name" : "pak.mxo",
				"type" : "iLaX"
			}
, 			{
				"name" : "modifiers.mxo",
				"type" : "iLaX"
			}
, 			{
				"name" : "forward.mxo",
				"type" : "iLaX"
			}
, 			{
				"name" : "speedlim.mxo",
				"type" : "iLaX"
			}
, 			{
				"name" : "vexpr.mxo",
				"type" : "iLaX"
			}
, 			{
				"name" : "swatch.mxo",
				"type" : "iLaX"
			}
, 			{
				"name" : "minimum.mxo",
				"type" : "iLaX"
			}
, 			{
				"name" : "maximum.mxo",
				"type" : "iLaX"
			}
, 			{
				"name" : "multislider.mxo",
				"type" : "iLaX"
			}
, 			{
				"name" : "clip.mxo",
				"type" : "iLaX"
			}
, 			{
				"name" : "textedit.mxo",
				"type" : "iLaX"
			}
, 			{
				"name" : "number.mxo",
				"type" : "iLaX"
			}
, 			{
				"name" : "waveform~.mxo",
				"type" : "iLaX"
			}
, 			{
				"name" : "umenu.mxo",
				"type" : "iLaX"
			}
, 			{
				"name" : "fpic.mxo",
				"type" : "iLaX"
			}
, 			{
				"name" : "info~.mxo",
				"type" : "iLaX"
			}
 ]
	}

}
