{
	"patcher" : 	{
		"fileversion" : 1,
		"appversion" : 		{
			"major" : 6,
			"minor" : 1,
			"revision" : 10,
			"architecture" : "x64"
		}
,
		"rect" : [ 68.0, 178.0, 1262.0, 675.0 ],
		"bgcolor" : [ 1.0, 1.0, 1.0, 0.0 ],
		"bglocked" : 0,
		"openinpresentation" : 0,
		"default_fontsize" : 12.0,
		"default_fontface" : 0,
		"default_fontname" : "Arial",
		"gridonopen" : 0,
		"gridsize" : [ 5.0, 5.0 ],
		"gridsnaponopen" : 0,
		"statusbarvisible" : 2,
		"toolbarvisible" : 1,
		"boxanimatetime" : 200,
		"imprint" : 0,
		"enablehscroll" : 1,
		"enablevscroll" : 1,
		"devicewidth" : 0.0,
		"description" : "",
		"digest" : "",
		"tags" : "",
		"boxes" : [ 			{
				"box" : 				{
					"fontname" : "Arial",
					"fontsize" : 12.0,
					"id" : "obj-39",
					"maxclass" : "newobj",
					"numinlets" : 1,
					"numoutlets" : 1,
					"outlettype" : [ "open" ],
					"patching_rect" : [ 679.0, 461.0, 44.0, 20.0 ],
					"text" : "t open"
				}

			}
, 			{
				"box" : 				{
					"fontname" : "Arial",
					"fontsize" : 12.0,
					"id" : "obj-40",
					"maxclass" : "newobj",
					"numinlets" : 1,
					"numoutlets" : 1,
					"outlettype" : [ "" ],
					"patching_rect" : [ 679.0, 487.0, 53.0, 20.0 ],
					"text" : "pcontrol"
				}

			}
, 			{
				"box" : 				{
					"fontname" : "Arial",
					"fontsize" : 12.0,
					"id" : "obj-41",
					"linecount" : 2,
					"maxclass" : "newobj",
					"numinlets" : 2,
					"numoutlets" : 0,
					"patching_rect" : [ 679.0, 515.0, 174.0, 33.0 ],
					"text" : "LAM.A.TactileMessenger.PresetEditor.viz #1 #2 /sample8"
				}

			}
, 			{
				"box" : 				{
					"bgcolor" : [ 0.0, 0.086275, 0.2, 1.0 ],
					"bgovercolor" : [ 0.0, 0.219608, 0.501961, 1.0 ],
					"border" : 1,
					"fontname" : "Arial",
					"fontsize" : 10.0,
					"id" : "obj-42",
					"maxclass" : "textbutton",
					"numinlets" : 1,
					"numoutlets" : 3,
					"outlettype" : [ "", "", "int" ],
					"parameter_enable" : 0,
					"patching_rect" : [ 682.0, 225.0, 41.0, 15.0 ],
					"rounded" : 12.0,
					"text" : "Visu",
					"textcolor" : [ 1.0, 1.0, 1.0, 1.0 ]
				}

			}
, 			{
				"box" : 				{
					"fontname" : "Arial",
					"fontsize" : 12.0,
					"id" : "obj-43",
					"maxclass" : "newobj",
					"numinlets" : 1,
					"numoutlets" : 1,
					"outlettype" : [ "open" ],
					"patching_rect" : [ 457.75, 461.0, 44.0, 20.0 ],
					"text" : "t open"
				}

			}
, 			{
				"box" : 				{
					"fontname" : "Arial",
					"fontsize" : 12.0,
					"id" : "obj-44",
					"maxclass" : "newobj",
					"numinlets" : 1,
					"numoutlets" : 1,
					"outlettype" : [ "" ],
					"patching_rect" : [ 457.75, 487.0, 53.0, 20.0 ],
					"text" : "pcontrol"
				}

			}
, 			{
				"box" : 				{
					"fontname" : "Arial",
					"fontsize" : 12.0,
					"id" : "obj-45",
					"linecount" : 2,
					"maxclass" : "newobj",
					"numinlets" : 2,
					"numoutlets" : 0,
					"patching_rect" : [ 457.75, 515.0, 174.0, 33.0 ],
					"text" : "LAM.A.TactileMessenger.PresetEditor.viz #1 #2 /sample6"
				}

			}
, 			{
				"box" : 				{
					"bgcolor" : [ 0.0, 0.086275, 0.2, 1.0 ],
					"bgovercolor" : [ 0.0, 0.219608, 0.501961, 1.0 ],
					"border" : 1,
					"fontname" : "Arial",
					"fontsize" : 10.0,
					"id" : "obj-46",
					"maxclass" : "textbutton",
					"numinlets" : 1,
					"numoutlets" : 3,
					"outlettype" : [ "", "", "int" ],
					"parameter_enable" : 0,
					"patching_rect" : [ 460.75, 225.0, 41.0, 15.0 ],
					"rounded" : 12.0,
					"text" : "Visu",
					"textcolor" : [ 1.0, 1.0, 1.0, 1.0 ]
				}

			}
, 			{
				"box" : 				{
					"fontname" : "Arial",
					"fontsize" : 12.0,
					"id" : "obj-47",
					"maxclass" : "newobj",
					"numinlets" : 1,
					"numoutlets" : 1,
					"outlettype" : [ "open" ],
					"patching_rect" : [ 239.0, 461.0, 44.0, 20.0 ],
					"text" : "t open"
				}

			}
, 			{
				"box" : 				{
					"fontname" : "Arial",
					"fontsize" : 12.0,
					"id" : "obj-48",
					"maxclass" : "newobj",
					"numinlets" : 1,
					"numoutlets" : 1,
					"outlettype" : [ "" ],
					"patching_rect" : [ 239.0, 487.0, 53.0, 20.0 ],
					"text" : "pcontrol"
				}

			}
, 			{
				"box" : 				{
					"fontname" : "Arial",
					"fontsize" : 12.0,
					"id" : "obj-49",
					"linecount" : 2,
					"maxclass" : "newobj",
					"numinlets" : 2,
					"numoutlets" : 0,
					"patching_rect" : [ 239.0, 515.0, 174.0, 33.0 ],
					"text" : "LAM.A.TactileMessenger.PresetEditor.viz #1 #2 /sample4"
				}

			}
, 			{
				"box" : 				{
					"bgcolor" : [ 0.0, 0.086275, 0.2, 1.0 ],
					"bgovercolor" : [ 0.0, 0.219608, 0.501961, 1.0 ],
					"border" : 1,
					"fontname" : "Arial",
					"fontsize" : 10.0,
					"id" : "obj-50",
					"maxclass" : "textbutton",
					"numinlets" : 1,
					"numoutlets" : 3,
					"outlettype" : [ "", "", "int" ],
					"parameter_enable" : 0,
					"patching_rect" : [ 242.0, 225.0, 41.0, 15.0 ],
					"rounded" : 12.0,
					"text" : "Visu",
					"textcolor" : [ 1.0, 1.0, 1.0, 1.0 ]
				}

			}
, 			{
				"box" : 				{
					"fontname" : "Arial",
					"fontsize" : 12.0,
					"id" : "obj-51",
					"maxclass" : "newobj",
					"numinlets" : 1,
					"numoutlets" : 1,
					"outlettype" : [ "open" ],
					"patching_rect" : [ 17.75, 461.0, 44.0, 20.0 ],
					"text" : "t open"
				}

			}
, 			{
				"box" : 				{
					"fontname" : "Arial",
					"fontsize" : 12.0,
					"id" : "obj-52",
					"maxclass" : "newobj",
					"numinlets" : 1,
					"numoutlets" : 1,
					"outlettype" : [ "" ],
					"patching_rect" : [ 17.75, 487.0, 53.0, 20.0 ],
					"text" : "pcontrol"
				}

			}
, 			{
				"box" : 				{
					"fontname" : "Arial",
					"fontsize" : 12.0,
					"id" : "obj-53",
					"linecount" : 2,
					"maxclass" : "newobj",
					"numinlets" : 2,
					"numoutlets" : 0,
					"patching_rect" : [ 17.75, 515.0, 174.0, 33.0 ],
					"text" : "LAM.A.TactileMessenger.PresetEditor.viz #1 #2 /sample2"
				}

			}
, 			{
				"box" : 				{
					"bgcolor" : [ 0.0, 0.086275, 0.2, 1.0 ],
					"bgovercolor" : [ 0.0, 0.219608, 0.501961, 1.0 ],
					"border" : 1,
					"fontname" : "Arial",
					"fontsize" : 10.0,
					"id" : "obj-56",
					"maxclass" : "textbutton",
					"numinlets" : 1,
					"numoutlets" : 3,
					"outlettype" : [ "", "", "int" ],
					"parameter_enable" : 0,
					"patching_rect" : [ 20.75, 225.0, 41.0, 15.0 ],
					"rounded" : 12.0,
					"text" : "Visu",
					"textcolor" : [ 1.0, 1.0, 1.0, 1.0 ]
				}

			}
, 			{
				"box" : 				{
					"fontname" : "Arial",
					"fontsize" : 12.0,
					"id" : "obj-9",
					"maxclass" : "newobj",
					"numinlets" : 1,
					"numoutlets" : 1,
					"outlettype" : [ "open" ],
					"patching_rect" : [ 680.25, 364.0, 44.0, 20.0 ],
					"text" : "t open"
				}

			}
, 			{
				"box" : 				{
					"fontname" : "Arial",
					"fontsize" : 12.0,
					"id" : "obj-11",
					"maxclass" : "newobj",
					"numinlets" : 1,
					"numoutlets" : 1,
					"outlettype" : [ "" ],
					"patching_rect" : [ 680.25, 390.0, 53.0, 20.0 ],
					"text" : "pcontrol"
				}

			}
, 			{
				"box" : 				{
					"fontname" : "Arial",
					"fontsize" : 12.0,
					"id" : "obj-12",
					"linecount" : 2,
					"maxclass" : "newobj",
					"numinlets" : 2,
					"numoutlets" : 0,
					"patching_rect" : [ 680.25, 418.0, 174.0, 33.0 ],
					"text" : "LAM.A.TactileMessenger.PresetEditor.viz #1 #2 /sample7"
				}

			}
, 			{
				"box" : 				{
					"bgcolor" : [ 0.0, 0.086275, 0.2, 1.0 ],
					"bgovercolor" : [ 0.0, 0.219608, 0.501961, 1.0 ],
					"border" : 1,
					"fontname" : "Arial",
					"fontsize" : 10.0,
					"id" : "obj-15",
					"maxclass" : "textbutton",
					"numinlets" : 1,
					"numoutlets" : 3,
					"outlettype" : [ "", "", "int" ],
					"parameter_enable" : 0,
					"patching_rect" : [ 683.25, 83.0, 41.0, 15.0 ],
					"rounded" : 12.0,
					"text" : "Visu",
					"textcolor" : [ 1.0, 1.0, 1.0, 1.0 ]
				}

			}
, 			{
				"box" : 				{
					"fontname" : "Arial",
					"fontsize" : 12.0,
					"id" : "obj-31",
					"maxclass" : "newobj",
					"numinlets" : 1,
					"numoutlets" : 1,
					"outlettype" : [ "open" ],
					"patching_rect" : [ 459.0, 364.0, 44.0, 20.0 ],
					"text" : "t open"
				}

			}
, 			{
				"box" : 				{
					"fontname" : "Arial",
					"fontsize" : 12.0,
					"id" : "obj-36",
					"maxclass" : "newobj",
					"numinlets" : 1,
					"numoutlets" : 1,
					"outlettype" : [ "" ],
					"patching_rect" : [ 459.0, 390.0, 53.0, 20.0 ],
					"text" : "pcontrol"
				}

			}
, 			{
				"box" : 				{
					"fontname" : "Arial",
					"fontsize" : 12.0,
					"id" : "obj-37",
					"linecount" : 2,
					"maxclass" : "newobj",
					"numinlets" : 2,
					"numoutlets" : 0,
					"patching_rect" : [ 459.0, 418.0, 174.0, 33.0 ],
					"text" : "LAM.A.TactileMessenger.PresetEditor.viz #1 #2 /sample5"
				}

			}
, 			{
				"box" : 				{
					"bgcolor" : [ 0.0, 0.086275, 0.2, 1.0 ],
					"bgovercolor" : [ 0.0, 0.219608, 0.501961, 1.0 ],
					"border" : 1,
					"fontname" : "Arial",
					"fontsize" : 10.0,
					"id" : "obj-38",
					"maxclass" : "textbutton",
					"numinlets" : 1,
					"numoutlets" : 3,
					"outlettype" : [ "", "", "int" ],
					"parameter_enable" : 0,
					"patching_rect" : [ 462.0, 83.0, 41.0, 15.0 ],
					"rounded" : 12.0,
					"text" : "Visu",
					"textcolor" : [ 1.0, 1.0, 1.0, 1.0 ]
				}

			}
, 			{
				"box" : 				{
					"fontname" : "Arial",
					"fontsize" : 12.0,
					"id" : "obj-1",
					"maxclass" : "newobj",
					"numinlets" : 1,
					"numoutlets" : 1,
					"outlettype" : [ "open" ],
					"patching_rect" : [ 240.25, 364.0, 44.0, 20.0 ],
					"text" : "t open"
				}

			}
, 			{
				"box" : 				{
					"fontname" : "Arial",
					"fontsize" : 12.0,
					"id" : "obj-3",
					"maxclass" : "newobj",
					"numinlets" : 1,
					"numoutlets" : 1,
					"outlettype" : [ "" ],
					"patching_rect" : [ 240.25, 390.0, 53.0, 20.0 ],
					"text" : "pcontrol"
				}

			}
, 			{
				"box" : 				{
					"fontname" : "Arial",
					"fontsize" : 12.0,
					"id" : "obj-7",
					"linecount" : 2,
					"maxclass" : "newobj",
					"numinlets" : 2,
					"numoutlets" : 0,
					"patching_rect" : [ 240.25, 418.0, 174.0, 33.0 ],
					"text" : "LAM.A.TactileMessenger.PresetEditor.viz #1 #2 /sample3"
				}

			}
, 			{
				"box" : 				{
					"bgcolor" : [ 0.0, 0.086275, 0.2, 1.0 ],
					"bgovercolor" : [ 0.0, 0.219608, 0.501961, 1.0 ],
					"border" : 1,
					"fontname" : "Arial",
					"fontsize" : 10.0,
					"id" : "obj-8",
					"maxclass" : "textbutton",
					"numinlets" : 1,
					"numoutlets" : 3,
					"outlettype" : [ "", "", "int" ],
					"parameter_enable" : 0,
					"patching_rect" : [ 243.25, 83.0, 41.0, 15.0 ],
					"rounded" : 12.0,
					"text" : "Visu",
					"textcolor" : [ 1.0, 1.0, 1.0, 1.0 ]
				}

			}
, 			{
				"box" : 				{
					"fontname" : "Arial",
					"fontsize" : 12.0,
					"id" : "obj-32",
					"maxclass" : "newobj",
					"numinlets" : 1,
					"numoutlets" : 1,
					"outlettype" : [ "open" ],
					"patching_rect" : [ 19.0, 364.0, 44.0, 20.0 ],
					"text" : "t open"
				}

			}
, 			{
				"box" : 				{
					"fontname" : "Arial",
					"fontsize" : 12.0,
					"id" : "obj-33",
					"maxclass" : "newobj",
					"numinlets" : 1,
					"numoutlets" : 1,
					"outlettype" : [ "" ],
					"patching_rect" : [ 19.0, 390.0, 53.0, 20.0 ],
					"text" : "pcontrol"
				}

			}
, 			{
				"box" : 				{
					"fontname" : "Arial",
					"fontsize" : 12.0,
					"id" : "obj-34",
					"linecount" : 2,
					"maxclass" : "newobj",
					"numinlets" : 2,
					"numoutlets" : 0,
					"patching_rect" : [ 19.0, 418.0, 174.0, 33.0 ],
					"text" : "LAM.A.TactileMessenger.PresetEditor.viz #1 #2 /sample1"
				}

			}
, 			{
				"box" : 				{
					"bgcolor" : [ 0.0, 0.086275, 0.2, 1.0 ],
					"bgovercolor" : [ 0.0, 0.219608, 0.501961, 1.0 ],
					"border" : 1,
					"fontname" : "Arial",
					"fontsize" : 10.0,
					"id" : "obj-35",
					"maxclass" : "textbutton",
					"numinlets" : 1,
					"numoutlets" : 3,
					"outlettype" : [ "", "", "int" ],
					"parameter_enable" : 0,
					"patching_rect" : [ 22.0, 83.0, 41.0, 15.0 ],
					"rounded" : 12.0,
					"text" : "Visu",
					"textcolor" : [ 1.0, 1.0, 1.0, 1.0 ]
				}

			}
, 			{
				"box" : 				{
					"args" : [ "#1", "#2", "/sample8/play" ],
					"border" : 1,
					"id" : "obj-23",
					"maxclass" : "bpatcher",
					"name" : "SDK.toggle.GUI.maxpat",
					"numinlets" : 2,
					"numoutlets" : 2,
					"outlettype" : [ "", "" ],
					"patching_rect" : [ 705.25, 325.0, 159.5, 18.0 ]
				}

			}
, 			{
				"box" : 				{
					"args" : [ "#1", "#2", "/sample8" ],
					"border" : 1,
					"id" : "obj-24",
					"maxclass" : "bpatcher",
					"name" : "SDK.buffer.GUI.maxpat",
					"numinlets" : 5,
					"numoutlets" : 5,
					"outlettype" : [ "int", "", "", "", "" ],
					"patching_rect" : [ 680.25, 222.0, 184.5, 101.0 ]
				}

			}
, 			{
				"box" : 				{
					"args" : [ "#1", "#2", "/sample7/play" ],
					"border" : 1,
					"id" : "obj-25",
					"maxclass" : "bpatcher",
					"name" : "SDK.toggle.GUI.maxpat",
					"numinlets" : 2,
					"numoutlets" : 2,
					"outlettype" : [ "", "" ],
					"patching_rect" : [ 705.25, 183.0, 159.5, 18.0 ]
				}

			}
, 			{
				"box" : 				{
					"args" : [ "#1", "#2", "/sample7" ],
					"border" : 1,
					"id" : "obj-26",
					"maxclass" : "bpatcher",
					"name" : "SDK.buffer.GUI.maxpat",
					"numinlets" : 5,
					"numoutlets" : 5,
					"outlettype" : [ "int", "", "", "", "" ],
					"patching_rect" : [ 680.25, 80.0, 184.5, 101.0 ]
				}

			}
, 			{
				"box" : 				{
					"args" : [ "#1", "#2", "/sample6/play" ],
					"border" : 1,
					"id" : "obj-27",
					"maxclass" : "bpatcher",
					"name" : "SDK.toggle.GUI.maxpat",
					"numinlets" : 2,
					"numoutlets" : 2,
					"outlettype" : [ "", "" ],
					"patching_rect" : [ 482.75, 325.0, 159.5, 18.0 ]
				}

			}
, 			{
				"box" : 				{
					"args" : [ "#1", "#2", "/sample6" ],
					"border" : 1,
					"id" : "obj-28",
					"maxclass" : "bpatcher",
					"name" : "SDK.buffer.GUI.maxpat",
					"numinlets" : 5,
					"numoutlets" : 5,
					"outlettype" : [ "int", "", "", "", "" ],
					"patching_rect" : [ 457.75, 222.0, 184.5, 101.0 ]
				}

			}
, 			{
				"box" : 				{
					"args" : [ "#1", "#2", "/sample5/play" ],
					"border" : 1,
					"id" : "obj-29",
					"maxclass" : "bpatcher",
					"name" : "SDK.toggle.GUI.maxpat",
					"numinlets" : 2,
					"numoutlets" : 2,
					"outlettype" : [ "", "" ],
					"patching_rect" : [ 482.75, 183.0, 159.5, 18.0 ]
				}

			}
, 			{
				"box" : 				{
					"args" : [ "#1", "#2", "/sample5" ],
					"border" : 1,
					"id" : "obj-30",
					"maxclass" : "bpatcher",
					"name" : "SDK.buffer.GUI.maxpat",
					"numinlets" : 5,
					"numoutlets" : 5,
					"outlettype" : [ "int", "", "", "", "" ],
					"patching_rect" : [ 457.75, 80.0, 184.5, 101.0 ]
				}

			}
, 			{
				"box" : 				{
					"args" : [ "#1", "#2", "/sample4/play" ],
					"border" : 1,
					"id" : "obj-19",
					"maxclass" : "bpatcher",
					"name" : "SDK.toggle.GUI.maxpat",
					"numinlets" : 2,
					"numoutlets" : 2,
					"outlettype" : [ "", "" ],
					"patching_rect" : [ 265.25, 325.0, 159.5, 18.0 ]
				}

			}
, 			{
				"box" : 				{
					"args" : [ "#1", "#2", "/sample4" ],
					"border" : 1,
					"id" : "obj-20",
					"maxclass" : "bpatcher",
					"name" : "SDK.buffer.GUI.maxpat",
					"numinlets" : 5,
					"numoutlets" : 5,
					"outlettype" : [ "int", "", "", "", "" ],
					"patching_rect" : [ 240.25, 222.0, 184.5, 101.0 ]
				}

			}
, 			{
				"box" : 				{
					"args" : [ "#1", "#2", "/sample3/play" ],
					"border" : 1,
					"id" : "obj-21",
					"maxclass" : "bpatcher",
					"name" : "SDK.toggle.GUI.maxpat",
					"numinlets" : 2,
					"numoutlets" : 2,
					"outlettype" : [ "", "" ],
					"patching_rect" : [ 265.25, 183.0, 159.5, 18.0 ]
				}

			}
, 			{
				"box" : 				{
					"args" : [ "#1", "#2", "/sample3" ],
					"border" : 1,
					"id" : "obj-22",
					"maxclass" : "bpatcher",
					"name" : "SDK.buffer.GUI.maxpat",
					"numinlets" : 5,
					"numoutlets" : 5,
					"outlettype" : [ "int", "", "", "", "" ],
					"patching_rect" : [ 240.25, 80.0, 184.5, 101.0 ]
				}

			}
, 			{
				"box" : 				{
					"args" : [ "#1", "#2", "/sample2/play" ],
					"border" : 1,
					"id" : "obj-17",
					"maxclass" : "bpatcher",
					"name" : "SDK.toggle.GUI.maxpat",
					"numinlets" : 2,
					"numoutlets" : 2,
					"outlettype" : [ "", "" ],
					"patching_rect" : [ 42.75, 325.0, 159.5, 18.0 ]
				}

			}
, 			{
				"box" : 				{
					"args" : [ "#1", "#2", "/sample2" ],
					"border" : 1,
					"id" : "obj-18",
					"maxclass" : "bpatcher",
					"name" : "SDK.buffer.GUI.maxpat",
					"numinlets" : 5,
					"numoutlets" : 5,
					"outlettype" : [ "int", "", "", "", "" ],
					"patching_rect" : [ 17.75, 222.0, 184.5, 101.0 ]
				}

			}
, 			{
				"box" : 				{
					"args" : [ "#1", "#2", "/sample1/play" ],
					"border" : 1,
					"id" : "obj-16",
					"maxclass" : "bpatcher",
					"name" : "SDK.toggle.GUI.maxpat",
					"numinlets" : 2,
					"numoutlets" : 2,
					"outlettype" : [ "", "" ],
					"patching_rect" : [ 42.75, 183.0, 159.5, 18.0 ]
				}

			}
, 			{
				"box" : 				{
					"fontname" : "Arial",
					"fontsize" : 12.0,
					"hidden" : 1,
					"id" : "obj-13",
					"maxclass" : "newobj",
					"numinlets" : 1,
					"numoutlets" : 1,
					"outlettype" : [ "" ],
					"patching_rect" : [ 235.25, 16.0, 125.0, 20.0 ],
					"text" : "loadmess mode none"
				}

			}
, 			{
				"box" : 				{
					"args" : [ "#1", "#2", "/sample1" ],
					"border" : 1,
					"id" : "obj-14",
					"maxclass" : "bpatcher",
					"name" : "SDK.buffer.GUI.maxpat",
					"numinlets" : 5,
					"numoutlets" : 5,
					"outlettype" : [ "int", "", "", "", "" ],
					"patching_rect" : [ 17.75, 80.0, 184.5, 101.0 ]
				}

			}
, 			{
				"box" : 				{
					"fontname" : "Arial",
					"fontsize" : 12.0,
					"id" : "obj-10",
					"maxclass" : "newobj",
					"numinlets" : 1,
					"numoutlets" : 0,
					"patching_rect" : [ 909.0, 92.0, 71.0, 20.0 ],
					"text" : "s #2-IniGUI"
				}

			}
, 			{
				"box" : 				{
					"fontname" : "Arial",
					"fontsize" : 12.0,
					"id" : "obj-5",
					"maxclass" : "newobj",
					"numinlets" : 1,
					"numoutlets" : 1,
					"outlettype" : [ "bang" ],
					"patching_rect" : [ 909.0, 65.0, 60.0, 20.0 ],
					"text" : "loadbang"
				}

			}
, 			{
				"box" : 				{
					"fontname" : "Arial",
					"fontsize" : 12.0,
					"frgb" : 0.0,
					"id" : "obj-2",
					"maxclass" : "comment",
					"numinlets" : 1,
					"numoutlets" : 0,
					"patching_rect" : [ 845.25, 54.0, 25.0, 20.0 ],
					"text" : "%",
					"textcolor" : [ 1.0, 1.0, 1.0, 1.0 ]
				}

			}
, 			{
				"box" : 				{
					"fontname" : "Arial",
					"fontsize" : 12.0,
					"id" : "obj-4",
					"maxclass" : "newobj",
					"numinlets" : 0,
					"numoutlets" : 3,
					"outlettype" : [ "", "", "" ],
					"patching_rect" : [ 917.5, 296.0, 289.0, 20.0 ],
					"text" : "SDK.synth.GUI.system #1 #2 #0"
				}

			}
, 			{
				"box" : 				{
					"fontname" : "Arial",
					"fontsize" : 12.0,
					"id" : "obj-201",
					"maxclass" : "newobj",
					"numinlets" : 1,
					"numoutlets" : 2,
					"outlettype" : [ "", "" ],
					"patching_rect" : [ 917.5, 324.0, 69.0, 20.0 ],
					"save" : [ "#N", "thispatcher", ";", "#Q", "end", ";" ],
					"text" : "thispatcher"
				}

			}
, 			{
				"box" : 				{
					"args" : [ "#1", "#2", "/level" ],
					"id" : "obj-6",
					"maxclass" : "bpatcher",
					"name" : "SDK.float.GUI.maxpat",
					"numinlets" : 2,
					"numoutlets" : 2,
					"outlettype" : [ "float", "" ],
					"patching_rect" : [ 661.25, 55.0, 186.0, 19.0 ]
				}

			}
, 			{
				"box" : 				{
					"fontname" : "Arial",
					"fontsize" : 14.0,
					"frgb" : 0.0,
					"id" : "obj-54",
					"maxclass" : "comment",
					"numinlets" : 1,
					"numoutlets" : 0,
					"patching_rect" : [ 17.75, 53.0, 147.0, 22.0 ],
					"text" : "Vibrotactile messages",
					"textcolor" : [ 1.0, 1.0, 1.0, 1.0 ],
					"varname" : "#0-Title1"
				}

			}
, 			{
				"box" : 				{
					"bgcolor" : [ 0.0, 0.0875, 0.2, 1.0 ],
					"id" : "obj-55",
					"maxclass" : "panel",
					"numinlets" : 1,
					"numoutlets" : 0,
					"patching_rect" : [ 10.0, 55.0, 866.25, 19.0 ],
					"rounded" : 10
				}

			}
, 			{
				"box" : 				{
					"fontname" : "Arial",
					"fontsize" : 9.0,
					"hidden" : 1,
					"id" : "obj-125",
					"maxclass" : "newobj",
					"numinlets" : 1,
					"numoutlets" : 0,
					"patching_rect" : [ 898.0, 222.0, 60.0, 17.0 ],
					"text" : "s #2-Clean"
				}

			}
, 			{
				"box" : 				{
					"hidden" : 1,
					"id" : "obj-126",
					"maxclass" : "button",
					"numinlets" : 1,
					"numoutlets" : 1,
					"outlettype" : [ "bang" ],
					"patching_rect" : [ 898.0, 167.0, 43.0, 43.0 ]
				}

			}
, 			{
				"box" : 				{
					"comment" : "",
					"id" : "obj-130",
					"maxclass" : "inlet",
					"numinlets" : 0,
					"numoutlets" : 1,
					"outlettype" : [ "" ],
					"patching_rect" : [ 1297.0, 42.0, 32.0, 32.0 ]
				}

			}
, 			{
				"box" : 				{
					"background" : 1,
					"bgcolor" : [ 0.0, 0.21875, 0.5, 1.0 ],
					"id" : "obj-149",
					"maxclass" : "panel",
					"numinlets" : 1,
					"numoutlets" : 0,
					"patching_rect" : [ 5.0, 50.0, 880.0, 300.0 ],
					"rounded" : 10
				}

			}
 ],
		"lines" : [ 			{
				"patchline" : 				{
					"destination" : [ "obj-3", 0 ],
					"disabled" : 0,
					"hidden" : 0,
					"source" : [ "obj-1", 0 ]
				}

			}
, 			{
				"patchline" : 				{
					"destination" : [ "obj-12", 0 ],
					"disabled" : 0,
					"hidden" : 0,
					"source" : [ "obj-11", 0 ]
				}

			}
, 			{
				"patchline" : 				{
					"destination" : [ "obj-125", 0 ],
					"disabled" : 0,
					"hidden" : 1,
					"source" : [ "obj-126", 0 ]
				}

			}
, 			{
				"patchline" : 				{
					"destination" : [ "obj-14", 4 ],
					"disabled" : 0,
					"hidden" : 1,
					"source" : [ "obj-13", 0 ]
				}

			}
, 			{
				"patchline" : 				{
					"destination" : [ "obj-18", 4 ],
					"disabled" : 0,
					"hidden" : 1,
					"source" : [ "obj-13", 0 ]
				}

			}
, 			{
				"patchline" : 				{
					"destination" : [ "obj-20", 4 ],
					"disabled" : 0,
					"hidden" : 1,
					"source" : [ "obj-13", 0 ]
				}

			}
, 			{
				"patchline" : 				{
					"destination" : [ "obj-22", 4 ],
					"disabled" : 0,
					"hidden" : 1,
					"source" : [ "obj-13", 0 ]
				}

			}
, 			{
				"patchline" : 				{
					"destination" : [ "obj-24", 4 ],
					"disabled" : 0,
					"hidden" : 1,
					"source" : [ "obj-13", 0 ]
				}

			}
, 			{
				"patchline" : 				{
					"destination" : [ "obj-26", 4 ],
					"disabled" : 0,
					"hidden" : 1,
					"source" : [ "obj-13", 0 ]
				}

			}
, 			{
				"patchline" : 				{
					"destination" : [ "obj-28", 4 ],
					"disabled" : 0,
					"hidden" : 1,
					"source" : [ "obj-13", 0 ]
				}

			}
, 			{
				"patchline" : 				{
					"destination" : [ "obj-30", 4 ],
					"disabled" : 0,
					"hidden" : 1,
					"source" : [ "obj-13", 0 ]
				}

			}
, 			{
				"patchline" : 				{
					"destination" : [ "obj-9", 0 ],
					"disabled" : 0,
					"hidden" : 1,
					"source" : [ "obj-15", 0 ]
				}

			}
, 			{
				"patchline" : 				{
					"destination" : [ "obj-7", 0 ],
					"disabled" : 0,
					"hidden" : 0,
					"source" : [ "obj-3", 0 ]
				}

			}
, 			{
				"patchline" : 				{
					"destination" : [ "obj-36", 0 ],
					"disabled" : 0,
					"hidden" : 0,
					"source" : [ "obj-31", 0 ]
				}

			}
, 			{
				"patchline" : 				{
					"destination" : [ "obj-33", 0 ],
					"disabled" : 0,
					"hidden" : 0,
					"source" : [ "obj-32", 0 ]
				}

			}
, 			{
				"patchline" : 				{
					"destination" : [ "obj-34", 0 ],
					"disabled" : 0,
					"hidden" : 0,
					"source" : [ "obj-33", 0 ]
				}

			}
, 			{
				"patchline" : 				{
					"destination" : [ "obj-32", 0 ],
					"disabled" : 0,
					"hidden" : 1,
					"source" : [ "obj-35", 0 ]
				}

			}
, 			{
				"patchline" : 				{
					"destination" : [ "obj-37", 0 ],
					"disabled" : 0,
					"hidden" : 0,
					"source" : [ "obj-36", 0 ]
				}

			}
, 			{
				"patchline" : 				{
					"destination" : [ "obj-31", 0 ],
					"disabled" : 0,
					"hidden" : 1,
					"source" : [ "obj-38", 0 ]
				}

			}
, 			{
				"patchline" : 				{
					"destination" : [ "obj-40", 0 ],
					"disabled" : 0,
					"hidden" : 0,
					"source" : [ "obj-39", 0 ]
				}

			}
, 			{
				"patchline" : 				{
					"destination" : [ "obj-12", 1 ],
					"disabled" : 0,
					"hidden" : 0,
					"source" : [ "obj-4", 2 ]
				}

			}
, 			{
				"patchline" : 				{
					"destination" : [ "obj-149", 0 ],
					"disabled" : 0,
					"hidden" : 1,
					"source" : [ "obj-4", 1 ]
				}

			}
, 			{
				"patchline" : 				{
					"destination" : [ "obj-201", 0 ],
					"disabled" : 0,
					"hidden" : 0,
					"source" : [ "obj-4", 0 ]
				}

			}
, 			{
				"patchline" : 				{
					"destination" : [ "obj-34", 1 ],
					"disabled" : 0,
					"hidden" : 0,
					"source" : [ "obj-4", 2 ]
				}

			}
, 			{
				"patchline" : 				{
					"destination" : [ "obj-37", 1 ],
					"disabled" : 0,
					"hidden" : 0,
					"source" : [ "obj-4", 2 ]
				}

			}
, 			{
				"patchline" : 				{
					"destination" : [ "obj-41", 1 ],
					"disabled" : 0,
					"hidden" : 0,
					"source" : [ "obj-4", 2 ]
				}

			}
, 			{
				"patchline" : 				{
					"destination" : [ "obj-45", 1 ],
					"disabled" : 0,
					"hidden" : 0,
					"source" : [ "obj-4", 2 ]
				}

			}
, 			{
				"patchline" : 				{
					"destination" : [ "obj-49", 1 ],
					"disabled" : 0,
					"hidden" : 0,
					"source" : [ "obj-4", 2 ]
				}

			}
, 			{
				"patchline" : 				{
					"destination" : [ "obj-53", 1 ],
					"disabled" : 0,
					"hidden" : 0,
					"source" : [ "obj-4", 2 ]
				}

			}
, 			{
				"patchline" : 				{
					"destination" : [ "obj-55", 0 ],
					"disabled" : 0,
					"hidden" : 1,
					"source" : [ "obj-4", 2 ]
				}

			}
, 			{
				"patchline" : 				{
					"destination" : [ "obj-7", 1 ],
					"disabled" : 0,
					"hidden" : 0,
					"source" : [ "obj-4", 2 ]
				}

			}
, 			{
				"patchline" : 				{
					"destination" : [ "obj-41", 0 ],
					"disabled" : 0,
					"hidden" : 0,
					"source" : [ "obj-40", 0 ]
				}

			}
, 			{
				"patchline" : 				{
					"destination" : [ "obj-39", 0 ],
					"disabled" : 0,
					"hidden" : 1,
					"source" : [ "obj-42", 0 ]
				}

			}
, 			{
				"patchline" : 				{
					"destination" : [ "obj-44", 0 ],
					"disabled" : 0,
					"hidden" : 0,
					"source" : [ "obj-43", 0 ]
				}

			}
, 			{
				"patchline" : 				{
					"destination" : [ "obj-45", 0 ],
					"disabled" : 0,
					"hidden" : 0,
					"source" : [ "obj-44", 0 ]
				}

			}
, 			{
				"patchline" : 				{
					"destination" : [ "obj-43", 0 ],
					"disabled" : 0,
					"hidden" : 1,
					"source" : [ "obj-46", 0 ]
				}

			}
, 			{
				"patchline" : 				{
					"destination" : [ "obj-48", 0 ],
					"disabled" : 0,
					"hidden" : 0,
					"source" : [ "obj-47", 0 ]
				}

			}
, 			{
				"patchline" : 				{
					"destination" : [ "obj-49", 0 ],
					"disabled" : 0,
					"hidden" : 0,
					"source" : [ "obj-48", 0 ]
				}

			}
, 			{
				"patchline" : 				{
					"destination" : [ "obj-10", 0 ],
					"disabled" : 0,
					"hidden" : 0,
					"source" : [ "obj-5", 0 ]
				}

			}
, 			{
				"patchline" : 				{
					"destination" : [ "obj-47", 0 ],
					"disabled" : 0,
					"hidden" : 1,
					"source" : [ "obj-50", 0 ]
				}

			}
, 			{
				"patchline" : 				{
					"destination" : [ "obj-52", 0 ],
					"disabled" : 0,
					"hidden" : 0,
					"source" : [ "obj-51", 0 ]
				}

			}
, 			{
				"patchline" : 				{
					"destination" : [ "obj-53", 0 ],
					"disabled" : 0,
					"hidden" : 0,
					"source" : [ "obj-52", 0 ]
				}

			}
, 			{
				"patchline" : 				{
					"destination" : [ "obj-51", 0 ],
					"disabled" : 0,
					"hidden" : 1,
					"source" : [ "obj-56", 0 ]
				}

			}
, 			{
				"patchline" : 				{
					"destination" : [ "obj-1", 0 ],
					"disabled" : 0,
					"hidden" : 1,
					"source" : [ "obj-8", 0 ]
				}

			}
, 			{
				"patchline" : 				{
					"destination" : [ "obj-11", 0 ],
					"disabled" : 0,
					"hidden" : 0,
					"source" : [ "obj-9", 0 ]
				}

			}
 ],
		"dependency_cache" : [ 			{
				"name" : "SDK.float.GUI.maxpat",
				"type" : "JSON",
				"implicit" : 1
			}
, 			{
				"name" : "r.d2.maxpat",
				"type" : "JSON",
				"implicit" : 1
			}
, 			{
				"name" : "vd.maxpat",
				"type" : "JSON",
				"implicit" : 1
			}
, 			{
				"name" : "sw.d2.maxpat",
				"type" : "JSON",
				"implicit" : 1
			}
, 			{
				"name" : "s.d2.maxpat",
				"type" : "JSON",
				"implicit" : 1
			}
, 			{
				"name" : "SDK.synth.GUI.system.maxpat",
				"type" : "JSON",
				"implicit" : 1
			}
, 			{
				"name" : "SDK.buffer.GUI.maxpat",
				"type" : "JSON",
				"implicit" : 1
			}
, 			{
				"name" : "sw.maxpat",
				"type" : "JSON",
				"implicit" : 1
			}
, 			{
				"name" : "SDK.toggle.GUI.maxpat",
				"type" : "JSON",
				"implicit" : 1
			}
, 			{
				"name" : "LAM.A.TactileMessenger.PresetEditor.viz.maxpat",
				"bootpath" : "/Applications/MM4/LAM-Atelier/MeMaSynth/LAM.A.TactileMessenger/ressources",
				"patcherrelativepath" : ".",
				"type" : "JSON",
				"implicit" : 1
			}
, 			{
				"name" : "SDK.float.maxpat",
				"type" : "JSON",
				"implicit" : 1
			}
, 			{
				"name" : "SDK.texture.GUI.maxpat",
				"type" : "JSON",
				"implicit" : 1
			}
, 			{
				"name" : "panel.mxo",
				"type" : "iLaX"
			}
, 			{
				"name" : "button.mxo",
				"type" : "iLaX"
			}
, 			{
				"name" : "comment.mxo",
				"type" : "iLaX"
			}
, 			{
				"name" : "textbutton.mxo",
				"type" : "iLaX"
			}
, 			{
				"name" : "number.mxo",
				"type" : "iLaX"
			}
, 			{
				"name" : "message.mxo",
				"type" : "iLaX"
			}
, 			{
				"name" : "combine.mxo",
				"type" : "iLaX"
			}
, 			{
				"name" : "prepend.mxo",
				"type" : "iLaX"
			}
, 			{
				"name" : "toggle.mxo",
				"type" : "iLaX"
			}
, 			{
				"name" : "patcherargs.mxo",
				"type" : "iLaX"
			}
, 			{
				"name" : "tosymbol.mxo",
				"type" : "iLaX"
			}
, 			{
				"name" : "fromsymbol.mxo",
				"type" : "iLaX"
			}
, 			{
				"name" : "append.mxo",
				"type" : "iLaX"
			}
, 			{
				"name" : "iter.mxo",
				"type" : "iLaX"
			}
, 			{
				"name" : "sprintf.mxo",
				"type" : "iLaX"
			}
, 			{
				"name" : "zl.mxo",
				"type" : "iLaX"
			}
, 			{
				"name" : "hint.mxo",
				"type" : "iLaX"
			}
, 			{
				"name" : "loadmess.mxo",
				"type" : "iLaX"
			}
, 			{
				"name" : "deferlow.mxo",
				"type" : "iLaX"
			}
, 			{
				"name" : "coll.mxo",
				"type" : "iLaX"
			}
, 			{
				"name" : "pak.mxo",
				"type" : "iLaX"
			}
, 			{
				"name" : "modifiers.mxo",
				"type" : "iLaX"
			}
, 			{
				"name" : "forward.mxo",
				"type" : "iLaX"
			}
, 			{
				"name" : "speedlim.mxo",
				"type" : "iLaX"
			}
, 			{
				"name" : "vexpr.mxo",
				"type" : "iLaX"
			}
, 			{
				"name" : "textedit.mxo",
				"type" : "iLaX"
			}
, 			{
				"name" : "number.mxo",
				"type" : "iLaX"
			}
, 			{
				"name" : "waveform~.mxo",
				"type" : "iLaX"
			}
, 			{
				"name" : "umenu.mxo",
				"type" : "iLaX"
			}
, 			{
				"name" : "fpic.mxo",
				"type" : "iLaX"
			}
, 			{
				"name" : "info~.mxo",
				"type" : "iLaX"
			}
, 			{
				"name" : "swatch.mxo",
				"type" : "iLaX"
			}
, 			{
				"name" : "multislider.mxo",
				"type" : "iLaX"
			}
, 			{
				"name" : "minimum.mxo",
				"type" : "iLaX"
			}
, 			{
				"name" : "maximum.mxo",
				"type" : "iLaX"
			}
, 			{
				"name" : "bgcolor.mxo",
				"type" : "iLaX"
			}
, 			{
				"name" : "jit.matrix.mxo",
				"type" : "iLaX"
			}
 ]
	}

}
