{
	"patcher" : 	{
		"fileversion" : 1,
		"appversion" : 		{
			"major" : 6,
			"minor" : 1,
			"revision" : 9,
			"architecture" : "x64"
		}
,
		"rect" : [ 65.0, 316.0, 935.0, 623.0 ],
		"bgcolor" : [ 1.0, 1.0, 1.0, 0.0 ],
		"bglocked" : 0,
		"openinpresentation" : 0,
		"default_fontsize" : 12.0,
		"default_fontface" : 0,
		"default_fontname" : "Arial",
		"gridonopen" : 0,
		"gridsize" : [ 5.0, 5.0 ],
		"gridsnaponopen" : 0,
		"statusbarvisible" : 2,
		"toolbarvisible" : 1,
		"boxanimatetime" : 200,
		"imprint" : 0,
		"enablehscroll" : 1,
		"enablevscroll" : 1,
		"devicewidth" : 0.0,
		"description" : "",
		"digest" : "",
		"tags" : "",
		"boxes" : [ 			{
				"box" : 				{
					"args" : [ "#1", "#2", "/waveform/rotatexyz/z" ],
					"border" : 1,
					"id" : "obj-24",
					"maxclass" : "bpatcher",
					"name" : "SDK.float.GUI.maxpat",
					"numinlets" : 2,
					"numoutlets" : 2,
					"outlettype" : [ "float", "" ],
					"patching_rect" : [ 225.0, 248.400269, 189.0, 18.0 ]
				}

			}
, 			{
				"box" : 				{
					"args" : [ "#1", "#2", "/waveform/rotatexyz/y" ],
					"border" : 1,
					"id" : "obj-25",
					"maxclass" : "bpatcher",
					"name" : "SDK.float.GUI.maxpat",
					"numinlets" : 2,
					"numoutlets" : 2,
					"outlettype" : [ "float", "" ],
					"patching_rect" : [ 225.0, 231.350235, 189.0, 18.0 ]
				}

			}
, 			{
				"box" : 				{
					"args" : [ "#1", "#2", "/waveform/rotatexyz/x" ],
					"border" : 1,
					"id" : "obj-27",
					"maxclass" : "bpatcher",
					"name" : "SDK.float.GUI.maxpat",
					"numinlets" : 2,
					"numoutlets" : 2,
					"outlettype" : [ "float", "" ],
					"patching_rect" : [ 225.0, 214.300201, 189.0, 18.0 ]
				}

			}
, 			{
				"box" : 				{
					"args" : [ "#1", "#2", "/waveform/scale/z" ],
					"border" : 1,
					"id" : "obj-22",
					"maxclass" : "bpatcher",
					"name" : "SDK.float.GUI.maxpat",
					"numinlets" : 2,
					"numoutlets" : 2,
					"outlettype" : [ "float", "" ],
					"patching_rect" : [ 225.0, 182.250153, 189.0, 18.0 ]
				}

			}
, 			{
				"box" : 				{
					"args" : [ "#1", "#2", "/waveform/scale/y" ],
					"border" : 1,
					"id" : "obj-19",
					"maxclass" : "bpatcher",
					"name" : "SDK.float.GUI.maxpat",
					"numinlets" : 2,
					"numoutlets" : 2,
					"outlettype" : [ "float", "" ],
					"patching_rect" : [ 225.0, 165.200134, 189.0, 18.0 ]
				}

			}
, 			{
				"box" : 				{
					"args" : [ "#1", "#2", "/waveform/scale/x" ],
					"border" : 1,
					"id" : "obj-16",
					"maxclass" : "bpatcher",
					"name" : "SDK.float.GUI.maxpat",
					"numinlets" : 2,
					"numoutlets" : 2,
					"outlettype" : [ "float", "" ],
					"patching_rect" : [ 225.0, 148.150101, 189.0, 18.0 ]
				}

			}
, 			{
				"box" : 				{
					"args" : [ "#1", "#2", "/waveform/position/z" ],
					"border" : 1,
					"id" : "obj-15",
					"maxclass" : "bpatcher",
					"name" : "SDK.float.GUI.maxpat",
					"numinlets" : 2,
					"numoutlets" : 2,
					"outlettype" : [ "float", "" ],
					"patching_rect" : [ 225.0, 116.100067, 189.0, 18.0 ]
				}

			}
, 			{
				"box" : 				{
					"args" : [ "#1", "#2", "/waveform/position/y" ],
					"border" : 1,
					"id" : "obj-13",
					"maxclass" : "bpatcher",
					"name" : "SDK.float.GUI.maxpat",
					"numinlets" : 2,
					"numoutlets" : 2,
					"outlettype" : [ "float", "" ],
					"patching_rect" : [ 225.0, 99.050034, 189.0, 18.0 ]
				}

			}
, 			{
				"box" : 				{
					"args" : [ "#1", "#2", "/waveform/position/x" ],
					"border" : 1,
					"id" : "obj-8",
					"maxclass" : "bpatcher",
					"name" : "SDK.float.GUI.maxpat",
					"numinlets" : 2,
					"numoutlets" : 2,
					"outlettype" : [ "float", "" ],
					"patching_rect" : [ 225.0, 82.0, 189.0, 18.0 ]
				}

			}
, 			{
				"box" : 				{
					"args" : [ "#1", "#2", "/waveform/type" ],
					"border" : 1,
					"id" : "obj-14",
					"maxclass" : "bpatcher",
					"name" : "SDK.int.GUI.maxpat",
					"numinlets" : 2,
					"numoutlets" : 2,
					"outlettype" : [ "", "" ],
					"patching_rect" : [ 14.0, 152.0, 189.0, 18.0 ]
				}

			}
, 			{
				"box" : 				{
					"arrowframe" : 0,
					"fontname" : "Arial",
					"fontsize" : 10.0,
					"id" : "obj-3",
					"items" : [ "silence", ",", "sinewave", ",", "sawtooth", ",", "square", ",", "noise" ],
					"maxclass" : "umenu",
					"numinlets" : 1,
					"numoutlets" : 3,
					"outlettype" : [ "int", "", "" ],
					"parameter_enable" : 0,
					"patching_rect" : [ 118.0, 132.0, 85.0, 18.0 ],
					"rounded" : 0
				}

			}
, 			{
				"box" : 				{
					"fontname" : "Arial",
					"fontsize" : 12.0,
					"id" : "obj-26",
					"maxclass" : "newobj",
					"numinlets" : 1,
					"numoutlets" : 1,
					"outlettype" : [ "open" ],
					"patching_rect" : [ 230.0, 362.0, 44.0, 20.0 ],
					"text" : "t open"
				}

			}
, 			{
				"box" : 				{
					"fontname" : "Arial",
					"fontsize" : 12.0,
					"id" : "obj-23",
					"maxclass" : "newobj",
					"numinlets" : 1,
					"numoutlets" : 1,
					"outlettype" : [ "" ],
					"patching_rect" : [ 230.0, 388.0, 53.0, 20.0 ],
					"text" : "pcontrol"
				}

			}
, 			{
				"box" : 				{
					"fontname" : "Arial",
					"fontsize" : 12.0,
					"id" : "obj-21",
					"maxclass" : "newobj",
					"numinlets" : 2,
					"numoutlets" : 0,
					"patcher" : 					{
						"fileversion" : 1,
						"appversion" : 						{
							"major" : 6,
							"minor" : 1,
							"revision" : 9,
							"architecture" : "x64"
						}
,
						"rect" : [ 238.0, 95.0, 357.0, 157.0 ],
						"bglocked" : 0,
						"openinpresentation" : 0,
						"default_fontsize" : 12.0,
						"default_fontface" : 0,
						"default_fontname" : "Arial",
						"gridonopen" : 0,
						"gridsize" : [ 15.0, 15.0 ],
						"gridsnaponopen" : 0,
						"statusbarvisible" : 2,
						"toolbarvisible" : 1,
						"boxanimatetime" : 200,
						"imprint" : 0,
						"enablehscroll" : 1,
						"enablevscroll" : 1,
						"devicewidth" : 0.0,
						"description" : "",
						"digest" : "",
						"tags" : "",
						"boxes" : [ 							{
								"box" : 								{
									"comment" : "",
									"id" : "obj-9",
									"maxclass" : "inlet",
									"numinlets" : 0,
									"numoutlets" : 1,
									"outlettype" : [ "" ],
									"patching_rect" : [ 665.0, 17.0, 25.0, 25.0 ]
								}

							}
, 							{
								"box" : 								{
									"color" : [ 0.0, 0.84, 0.066288, 1.0 ],
									"fontname" : "Arial",
									"fontsize" : 12.0,
									"id" : "obj-7",
									"maxclass" : "newobj",
									"numinlets" : 2,
									"numoutlets" : 1,
									"outlettype" : [ "float" ],
									"patching_rect" : [ 20.0, 69.0, 215.0, 20.0 ],
									"text" : "SDK.float #1 #2 /waveform/color/alpha"
								}

							}
, 							{
								"box" : 								{
									"color" : [ 0.0, 0.84, 0.066288, 1.0 ],
									"fontname" : "Arial",
									"fontsize" : 12.0,
									"id" : "obj-6",
									"maxclass" : "newobj",
									"numinlets" : 2,
									"numoutlets" : 1,
									"outlettype" : [ "float" ],
									"patching_rect" : [ 90.5, 289.046509, 209.0, 20.0 ],
									"text" : "SDK.float #1 #2 /waveform/color/blue"
								}

							}
, 							{
								"box" : 								{
									"color" : [ 0.0, 0.84, 0.066288, 1.0 ],
									"fontname" : "Arial",
									"fontsize" : 12.0,
									"id" : "obj-5",
									"maxclass" : "newobj",
									"numinlets" : 2,
									"numoutlets" : 1,
									"outlettype" : [ "float" ],
									"patching_rect" : [ 55.5, 266.023254, 217.0, 20.0 ],
									"text" : "SDK.float #1 #2 /waveform/color/green"
								}

							}
, 							{
								"box" : 								{
									"fontname" : "Arial",
									"fontsize" : 12.0,
									"id" : "obj-4",
									"maxclass" : "newobj",
									"numinlets" : 3,
									"numoutlets" : 1,
									"outlettype" : [ "" ],
									"patching_rect" : [ 20.5, 313.046509, 89.0, 20.0 ],
									"text" : "pak 0. 0. 0."
								}

							}
, 							{
								"box" : 								{
									"color" : [ 0.0, 0.84, 0.066288, 1.0 ],
									"fontname" : "Arial",
									"fontsize" : 12.0,
									"id" : "obj-3",
									"maxclass" : "newobj",
									"numinlets" : 2,
									"numoutlets" : 1,
									"outlettype" : [ "float" ],
									"patching_rect" : [ 20.5, 243.0, 203.0, 20.0 ],
									"text" : "SDK.float #1 #2 /waveform/color/red"
								}

							}
, 							{
								"box" : 								{
									"args" : [ "#1", "#2", "/waveform/color/alpha" ],
									"border" : 1,
									"id" : "obj-33",
									"maxclass" : "bpatcher",
									"name" : "SDK.float.GUI.maxpat",
									"numinlets" : 2,
									"numoutlets" : 2,
									"outlettype" : [ "float", "" ],
									"patching_rect" : [ 309.0, 205.25, 189.0, 18.0 ],
									"presentation" : 1,
									"presentation_rect" : [ 160.0, 126.0, 189.0, 18.0 ]
								}

							}
, 							{
								"box" : 								{
									"args" : [ "#1", "#2", "/waveform/color/blue" ],
									"border" : 1,
									"id" : "obj-32",
									"maxclass" : "bpatcher",
									"name" : "SDK.float.GUI.maxpat",
									"numinlets" : 2,
									"numoutlets" : 2,
									"outlettype" : [ "float", "" ],
									"patching_rect" : [ 309.0, 182.5, 189.0, 18.0 ],
									"presentation" : 1,
									"presentation_rect" : [ 160.0, 101.0, 189.0, 18.0 ]
								}

							}
, 							{
								"box" : 								{
									"args" : [ "#1", "#2", "/waveform/color/green" ],
									"border" : 1,
									"id" : "obj-31",
									"maxclass" : "bpatcher",
									"name" : "SDK.float.GUI.maxpat",
									"numinlets" : 2,
									"numoutlets" : 2,
									"outlettype" : [ "float", "" ],
									"patching_rect" : [ 309.0, 159.75, 189.0, 18.0 ],
									"presentation" : 1,
									"presentation_rect" : [ 160.0, 76.0, 189.0, 18.0 ]
								}

							}
, 							{
								"box" : 								{
									"args" : [ "#1", "#2", "/waveform/color/red" ],
									"border" : 1,
									"id" : "obj-30",
									"maxclass" : "bpatcher",
									"name" : "SDK.float.GUI.maxpat",
									"numinlets" : 2,
									"numoutlets" : 2,
									"outlettype" : [ "float", "" ],
									"patching_rect" : [ 309.0, 137.0, 189.0, 18.0 ],
									"presentation" : 1,
									"presentation_rect" : [ 160.0, 51.0, 189.0, 18.0 ]
								}

							}
, 							{
								"box" : 								{
									"fontname" : "Arial",
									"fontsize" : 12.0,
									"id" : "obj-8",
									"maxclass" : "newobj",
									"numinlets" : 1,
									"numoutlets" : 3,
									"outlettype" : [ "float", "float", "float" ],
									"patching_rect" : [ 20.5, 217.5, 89.0, 20.0 ],
									"text" : "unpack 0. 0. 0."
								}

							}
, 							{
								"box" : 								{
									"fontname" : "Arial",
									"fontsize" : 18.0,
									"frgb" : 0.0,
									"id" : "obj-61",
									"maxclass" : "comment",
									"numinlets" : 1,
									"numoutlets" : 0,
									"patching_rect" : [ 20.0, 10.0, 246.0, 27.0 ],
									"presentation" : 1,
									"presentation_rect" : [ 19.0, 8.0, 246.0, 27.0 ],
									"text" : "AFFICHAGE ET COULEURS",
									"textcolor" : [ 1.0, 1.0, 1.0, 1.0 ]
								}

							}
, 							{
								"box" : 								{
									"fontname" : "Arial",
									"fontsize" : 12.0,
									"frgb" : 0.0,
									"id" : "obj-56",
									"maxclass" : "comment",
									"numinlets" : 1,
									"numoutlets" : 0,
									"patching_rect" : [ 87.5, 109.5, 63.0, 20.0 ],
									"presentation" : 1,
									"presentation_rect" : [ 19.0, 34.0, 63.0, 20.0 ],
									"text" : "waveform",
									"textcolor" : [ 1.0, 1.0, 1.0, 1.0 ]
								}

							}
, 							{
								"box" : 								{
									"fontname" : "Arial",
									"fontsize" : 12.0,
									"id" : "obj-54",
									"maxclass" : "newobj",
									"numinlets" : 1,
									"numoutlets" : 1,
									"outlettype" : [ "" ],
									"patching_rect" : [ 272.0, 17.0, 141.0, 20.0 ],
									"text" : "loadmess presentation 1"
								}

							}
, 							{
								"box" : 								{
									"fontname" : "Arial",
									"fontsize" : 12.0,
									"id" : "obj-53",
									"maxclass" : "newobj",
									"numinlets" : 1,
									"numoutlets" : 2,
									"outlettype" : [ "", "" ],
									"patching_rect" : [ 272.0, 43.0, 69.0, 20.0 ],
									"save" : [ "#N", "thispatcher", ";", "#Q", "end", ";" ],
									"text" : "thispatcher"
								}

							}
, 							{
								"box" : 								{
									"fontname" : "Arial",
									"fontsize" : 12.0,
									"frgb" : 0.0,
									"id" : "obj-19",
									"maxclass" : "comment",
									"numinlets" : 1,
									"numoutlets" : 0,
									"patching_rect" : [ 48.5, 43.0, 49.0, 20.0 ],
									"presentation" : 1,
									"presentation_rect" : [ 60.5, 125.0, 49.0, 20.0 ],
									"text" : "opacité"
								}

							}
, 							{
								"box" : 								{
									"contdata" : 1,
									"ghostbar" : 70,
									"id" : "obj-13",
									"maxclass" : "multislider",
									"numinlets" : 1,
									"numoutlets" : 2,
									"orientation" : 0,
									"outlettype" : [ "", "" ],
									"parameter_enable" : 0,
									"patching_rect" : [ 20.0, 43.0, 133.0, 19.0 ],
									"presentation" : 1,
									"presentation_rect" : [ 18.5, 126.0, 133.0, 18.0 ],
									"setminmax" : [ 0.0, 1.0 ]
								}

							}
, 							{
								"box" : 								{
									"id" : "obj-11",
									"maxclass" : "swatch",
									"numinlets" : 3,
									"numoutlets" : 2,
									"outlettype" : [ "", "float" ],
									"parameter_enable" : 0,
									"patching_rect" : [ 20.5, 129.5, 133.0, 74.0 ],
									"presentation" : 1,
									"presentation_rect" : [ 19.0, 51.0, 133.0, 74.0 ]
								}

							}
, 							{
								"box" : 								{
									"comment" : "",
									"id" : "obj-1",
									"maxclass" : "inlet",
									"numinlets" : 0,
									"numoutlets" : 1,
									"outlettype" : [ "" ],
									"patching_rect" : [ 423.0, 17.0, 25.0, 25.0 ]
								}

							}
, 							{
								"box" : 								{
									"background" : 1,
									"bgcolor" : [ 0.0, 0.21875, 0.5, 1.0 ],
									"id" : "obj-194",
									"maxclass" : "panel",
									"numinlets" : 1,
									"numoutlets" : 0,
									"patching_rect" : [ 665.0, 54.0, 41.0, 48.0 ],
									"presentation" : 1,
									"presentation_rect" : [ 0.0, 0.0, 358.0, 157.0 ],
									"rounded" : 10
								}

							}
 ],
						"lines" : [ 							{
								"patchline" : 								{
									"destination" : [ "obj-8", 0 ],
									"disabled" : 0,
									"hidden" : 0,
									"source" : [ "obj-11", 0 ]
								}

							}
, 							{
								"patchline" : 								{
									"destination" : [ "obj-7", 0 ],
									"disabled" : 0,
									"hidden" : 0,
									"source" : [ "obj-13", 0 ]
								}

							}
, 							{
								"patchline" : 								{
									"destination" : [ "obj-4", 0 ],
									"disabled" : 0,
									"hidden" : 0,
									"source" : [ "obj-3", 0 ]
								}

							}
, 							{
								"patchline" : 								{
									"destination" : [ "obj-31", 1 ],
									"disabled" : 0,
									"hidden" : 0,
									"source" : [ "obj-30", 1 ]
								}

							}
, 							{
								"patchline" : 								{
									"destination" : [ "obj-32", 1 ],
									"disabled" : 0,
									"hidden" : 0,
									"source" : [ "obj-31", 1 ]
								}

							}
, 							{
								"patchline" : 								{
									"destination" : [ "obj-33", 1 ],
									"disabled" : 0,
									"hidden" : 0,
									"source" : [ "obj-32", 1 ]
								}

							}
, 							{
								"patchline" : 								{
									"destination" : [ "obj-30", 1 ],
									"disabled" : 0,
									"hidden" : 0,
									"source" : [ "obj-33", 1 ]
								}

							}
, 							{
								"patchline" : 								{
									"destination" : [ "obj-11", 0 ],
									"disabled" : 0,
									"hidden" : 0,
									"midpoints" : [ 30.0, 343.0, 4.0, 343.0, 4.0, 121.0, 30.0, 121.0 ],
									"source" : [ "obj-4", 0 ]
								}

							}
, 							{
								"patchline" : 								{
									"destination" : [ "obj-4", 1 ],
									"disabled" : 0,
									"hidden" : 0,
									"source" : [ "obj-5", 0 ]
								}

							}
, 							{
								"patchline" : 								{
									"destination" : [ "obj-53", 0 ],
									"disabled" : 0,
									"hidden" : 0,
									"source" : [ "obj-54", 0 ]
								}

							}
, 							{
								"patchline" : 								{
									"destination" : [ "obj-4", 2 ],
									"disabled" : 0,
									"hidden" : 0,
									"source" : [ "obj-6", 0 ]
								}

							}
, 							{
								"patchline" : 								{
									"destination" : [ "obj-13", 0 ],
									"disabled" : 0,
									"hidden" : 0,
									"source" : [ "obj-7", 0 ]
								}

							}
, 							{
								"patchline" : 								{
									"destination" : [ "obj-3", 0 ],
									"disabled" : 0,
									"hidden" : 0,
									"source" : [ "obj-8", 0 ]
								}

							}
, 							{
								"patchline" : 								{
									"destination" : [ "obj-5", 0 ],
									"disabled" : 0,
									"hidden" : 0,
									"source" : [ "obj-8", 1 ]
								}

							}
, 							{
								"patchline" : 								{
									"destination" : [ "obj-6", 0 ],
									"disabled" : 0,
									"hidden" : 0,
									"source" : [ "obj-8", 2 ]
								}

							}
, 							{
								"patchline" : 								{
									"destination" : [ "obj-194", 0 ],
									"disabled" : 0,
									"hidden" : 0,
									"source" : [ "obj-9", 0 ]
								}

							}
 ]
					}
,
					"patching_rect" : [ 230.0, 416.0, 112.0, 20.0 ],
					"saved_object_attributes" : 					{
						"default_fontface" : 0,
						"default_fontname" : "Arial",
						"default_fontsize" : 12.0,
						"description" : "",
						"digest" : "",
						"fontface" : 0,
						"fontname" : "Arial",
						"fontsize" : 12.0,
						"globalpatchername" : "",
						"tags" : ""
					}
,
					"text" : "p OptionsAffichage"
				}

			}
, 			{
				"box" : 				{
					"bgcolor" : [ 0.0, 0.086275, 0.2, 1.0 ],
					"bgovercolor" : [ 0.0, 0.219608, 0.501961, 1.0 ],
					"fontname" : "Arial",
					"fontsize" : 12.0,
					"id" : "obj-20",
					"maxclass" : "textbutton",
					"numinlets" : 1,
					"numoutlets" : 3,
					"outlettype" : [ "", "", "int" ],
					"parameter_enable" : 0,
					"patching_rect" : [ 230.0, 324.0, 182.0, 20.0 ],
					"text" : "Options d'affichage",
					"textcolor" : [ 1.0, 1.0, 1.0, 1.0 ]
				}

			}
, 			{
				"box" : 				{
					"fontname" : "Arial",
					"fontsize" : 12.0,
					"hidden" : 1,
					"id" : "obj-17",
					"maxclass" : "newobj",
					"numinlets" : 1,
					"numoutlets" : 1,
					"outlettype" : [ "" ],
					"patching_rect" : [ 395.0, 19.0, 97.0, 20.0 ],
					"text" : "loadmess size 2"
				}

			}
, 			{
				"box" : 				{
					"fontname" : "Arial",
					"fontsize" : 12.0,
					"hidden" : 1,
					"id" : "obj-11",
					"maxclass" : "newobj",
					"numinlets" : 1,
					"numoutlets" : 1,
					"outlettype" : [ "" ],
					"patching_rect" : [ 187.0, 19.0, 130.0, 20.0 ],
					"text" : "loadmess mode select"
				}

			}
, 			{
				"box" : 				{
					"args" : [ "#1", "#2", "/pitch" ],
					"border" : 1,
					"id" : "obj-1",
					"maxclass" : "bpatcher",
					"name" : "SDK.float.GUI.maxpat",
					"numinlets" : 2,
					"numoutlets" : 2,
					"outlettype" : [ "float", "" ],
					"patching_rect" : [ 14.0, 194.0, 189.0, 18.0 ]
				}

			}
, 			{
				"box" : 				{
					"fontname" : "Arial",
					"fontsize" : 12.0,
					"hidden" : 1,
					"id" : "obj-12",
					"maxclass" : "newobj",
					"numinlets" : 1,
					"numoutlets" : 1,
					"outlettype" : [ "bang" ],
					"patching_rect" : [ 440.0, 357.0, 24.0, 20.0 ],
					"text" : "t b"
				}

			}
, 			{
				"box" : 				{
					"color" : [ 0.0, 0.784314, 0.627451, 1.0 ],
					"fontname" : "Arial",
					"fontsize" : 12.0,
					"hidden" : 1,
					"id" : "obj-9",
					"maxclass" : "newobj",
					"numinlets" : 1,
					"numoutlets" : 0,
					"patching_rect" : [ 440.0, 389.0, 328.0, 20.0 ],
					"text" : "SDK.extraWindow #1 #2 ParamsAudioAvances.maxpat 240"
				}

			}
, 			{
				"box" : 				{
					"fontname" : "Arial",
					"fontsize" : 12.0,
					"id" : "obj-10",
					"maxclass" : "newobj",
					"numinlets" : 1,
					"numoutlets" : 0,
					"patching_rect" : [ 909.0, 92.0, 71.0, 20.0 ],
					"text" : "s #2-IniGUI"
				}

			}
, 			{
				"box" : 				{
					"fontname" : "Arial",
					"fontsize" : 12.0,
					"id" : "obj-5",
					"maxclass" : "newobj",
					"numinlets" : 1,
					"numoutlets" : 1,
					"outlettype" : [ "bang" ],
					"patching_rect" : [ 909.0, 65.0, 60.0, 20.0 ],
					"text" : "loadbang"
				}

			}
, 			{
				"box" : 				{
					"bgcolor" : [ 0.0, 0.086275, 0.2, 1.0 ],
					"bgovercolor" : [ 0.0, 0.219608, 0.501961, 1.0 ],
					"fontname" : "Arial",
					"fontsize" : 12.0,
					"id" : "obj-152",
					"maxclass" : "textbutton",
					"numinlets" : 1,
					"numoutlets" : 3,
					"outlettype" : [ "", "", "int" ],
					"parameter_enable" : 0,
					"patching_rect" : [ 440.0, 324.0, 200.0, 20.0 ],
					"text" : "Paramètres Audio Avancés",
					"textcolor" : [ 1.0, 1.0, 1.0, 1.0 ]
				}

			}
, 			{
				"box" : 				{
					"fontname" : "Arial",
					"fontsize" : 12.0,
					"frgb" : 0.0,
					"id" : "obj-2",
					"maxclass" : "comment",
					"numinlets" : 1,
					"numoutlets" : 0,
					"patching_rect" : [ 620.0, 143.0, 25.0, 20.0 ],
					"text" : "%",
					"textcolor" : [ 1.0, 1.0, 1.0, 1.0 ]
				}

			}
, 			{
				"box" : 				{
					"fontname" : "Arial",
					"fontsize" : 12.0,
					"id" : "obj-4",
					"maxclass" : "newobj",
					"numinlets" : 0,
					"numoutlets" : 3,
					"outlettype" : [ "", "", "" ],
					"patching_rect" : [ 917.5, 296.0, 289.0, 20.0 ],
					"text" : "SDK.synth.GUI.system #1 #2 #0"
				}

			}
, 			{
				"box" : 				{
					"fontname" : "Arial",
					"fontsize" : 12.0,
					"id" : "obj-201",
					"maxclass" : "newobj",
					"numinlets" : 1,
					"numoutlets" : 2,
					"outlettype" : [ "", "" ],
					"patching_rect" : [ 917.5, 324.0, 69.0, 20.0 ],
					"save" : [ "#N", "thispatcher", ";", "#Q", "end", ";" ],
					"text" : "thispatcher"
				}

			}
, 			{
				"box" : 				{
					"args" : [ "#1", "#2", "/level" ],
					"id" : "obj-6",
					"maxclass" : "bpatcher",
					"name" : "SDK.float.GUI.maxpat",
					"numinlets" : 2,
					"numoutlets" : 2,
					"outlettype" : [ "float", "" ],
					"patching_rect" : [ 436.0, 144.0, 186.0, 19.0 ]
				}

			}
, 			{
				"box" : 				{
					"fontname" : "Arial",
					"fontsize" : 14.0,
					"frgb" : 0.0,
					"id" : "obj-192",
					"maxclass" : "comment",
					"numinlets" : 1,
					"numoutlets" : 0,
					"patching_rect" : [ 705.0, 53.0, 120.0, 22.0 ],
					"text" : "Paramètres Vidéo",
					"textcolor" : [ 1.0, 1.0, 1.0, 1.0 ],
					"varname" : "#0-Title4"
				}

			}
, 			{
				"box" : 				{
					"bgcolor" : [ 0.0, 0.0875, 0.2, 1.0 ],
					"id" : "obj-193",
					"maxclass" : "panel",
					"numinlets" : 1,
					"numoutlets" : 0,
					"patching_rect" : [ 655.0, 55.0, 225.0, 20.0 ],
					"rounded" : 10
				}

			}
, 			{
				"box" : 				{
					"fontname" : "Arial",
					"fontsize" : 14.0,
					"frgb" : 0.0,
					"id" : "obj-188",
					"maxclass" : "comment",
					"numinlets" : 1,
					"numoutlets" : 0,
					"patching_rect" : [ 480.0, 53.0, 121.0, 22.0 ],
					"text" : "Paramètres Audio",
					"textcolor" : [ 1.0, 1.0, 1.0, 1.0 ],
					"varname" : "#0-Title3"
				}

			}
, 			{
				"box" : 				{
					"bgcolor" : [ 0.0, 0.0875, 0.2, 1.0 ],
					"id" : "obj-187",
					"maxclass" : "panel",
					"numinlets" : 1,
					"numoutlets" : 0,
					"patching_rect" : [ 440.0, 55.0, 200.0, 20.0 ],
					"rounded" : 10
				}

			}
, 			{
				"box" : 				{
					"fontname" : "Arial",
					"fontsize" : 14.0,
					"frgb" : 0.0,
					"id" : "obj-52",
					"maxclass" : "comment",
					"numinlets" : 1,
					"numoutlets" : 0,
					"patching_rect" : [ 269.0, 53.0, 111.0, 22.0 ],
					"text" : "Matière visuelle",
					"textcolor" : [ 1.0, 1.0, 1.0, 1.0 ],
					"varname" : "#0-Title2"
				}

			}
, 			{
				"box" : 				{
					"bgcolor" : [ 0.0, 0.0875, 0.2, 1.0 ],
					"id" : "obj-53",
					"maxclass" : "panel",
					"numinlets" : 1,
					"numoutlets" : 0,
					"patching_rect" : [ 225.0, 55.0, 200.0, 20.0 ],
					"rounded" : 10
				}

			}
, 			{
				"box" : 				{
					"fontname" : "Arial",
					"fontsize" : 14.0,
					"frgb" : 0.0,
					"id" : "obj-54",
					"maxclass" : "comment",
					"numinlets" : 1,
					"numoutlets" : 0,
					"patching_rect" : [ 60.0, 52.0, 106.0, 22.0 ],
					"text" : "Matière sonore",
					"textcolor" : [ 1.0, 1.0, 1.0, 1.0 ],
					"varname" : "#0-Title1"
				}

			}
, 			{
				"box" : 				{
					"bgcolor" : [ 0.0, 0.0875, 0.2, 1.0 ],
					"id" : "obj-55",
					"maxclass" : "panel",
					"numinlets" : 1,
					"numoutlets" : 0,
					"patching_rect" : [ 10.0, 55.0, 200.0, 20.0 ],
					"rounded" : 10
				}

			}
, 			{
				"box" : 				{
					"fontname" : "Arial",
					"fontsize" : 9.0,
					"hidden" : 1,
					"id" : "obj-125",
					"maxclass" : "newobj",
					"numinlets" : 1,
					"numoutlets" : 0,
					"patching_rect" : [ 898.0, 222.0, 60.0, 17.0 ],
					"text" : "s #2-Clean"
				}

			}
, 			{
				"box" : 				{
					"hidden" : 1,
					"id" : "obj-126",
					"maxclass" : "button",
					"numinlets" : 1,
					"numoutlets" : 1,
					"outlettype" : [ "bang" ],
					"patching_rect" : [ 898.0, 167.0, 43.0, 43.0 ]
				}

			}
, 			{
				"box" : 				{
					"comment" : "",
					"id" : "obj-130",
					"maxclass" : "inlet",
					"numinlets" : 0,
					"numoutlets" : 1,
					"outlettype" : [ "" ],
					"patching_rect" : [ 1297.0, 42.0, 32.0, 32.0 ]
				}

			}
, 			{
				"box" : 				{
					"background" : 1,
					"bgcolor" : [ 0.0, 0.21875, 0.5, 1.0 ],
					"id" : "obj-186",
					"maxclass" : "panel",
					"numinlets" : 1,
					"numoutlets" : 0,
					"patching_rect" : [ 435.0, 50.0, 210.0, 300.0 ],
					"rounded" : 10
				}

			}
, 			{
				"box" : 				{
					"background" : 1,
					"bgcolor" : [ 0.0, 0.21875, 0.5, 1.0 ],
					"id" : "obj-194",
					"maxclass" : "panel",
					"numinlets" : 1,
					"numoutlets" : 0,
					"patching_rect" : [ 650.0, 50.0, 235.0, 300.0 ],
					"rounded" : 10
				}

			}
, 			{
				"box" : 				{
					"background" : 1,
					"bgcolor" : [ 0.0, 0.21875, 0.5, 1.0 ],
					"id" : "obj-148",
					"maxclass" : "panel",
					"numinlets" : 1,
					"numoutlets" : 0,
					"patching_rect" : [ 220.0, 50.0, 210.0, 300.0 ],
					"rounded" : 10
				}

			}
, 			{
				"box" : 				{
					"background" : 1,
					"bgcolor" : [ 0.0, 0.21875, 0.5, 1.0 ],
					"id" : "obj-149",
					"maxclass" : "panel",
					"numinlets" : 1,
					"numoutlets" : 0,
					"patching_rect" : [ 5.0, 50.0, 210.0, 300.0 ],
					"rounded" : 10
				}

			}
 ],
		"lines" : [ 			{
				"patchline" : 				{
					"destination" : [ "obj-8", 1 ],
					"disabled" : 0,
					"hidden" : 1,
					"source" : [ "obj-1", 1 ]
				}

			}
, 			{
				"patchline" : 				{
					"destination" : [ "obj-9", 0 ],
					"disabled" : 0,
					"hidden" : 1,
					"source" : [ "obj-12", 0 ]
				}

			}
, 			{
				"patchline" : 				{
					"destination" : [ "obj-125", 0 ],
					"disabled" : 0,
					"hidden" : 1,
					"source" : [ "obj-126", 0 ]
				}

			}
, 			{
				"patchline" : 				{
					"destination" : [ "obj-15", 1 ],
					"disabled" : 0,
					"hidden" : 1,
					"source" : [ "obj-13", 1 ]
				}

			}
, 			{
				"patchline" : 				{
					"destination" : [ "obj-1", 1 ],
					"disabled" : 0,
					"hidden" : 1,
					"source" : [ "obj-14", 1 ]
				}

			}
, 			{
				"patchline" : 				{
					"destination" : [ "obj-3", 0 ],
					"disabled" : 0,
					"hidden" : 1,
					"source" : [ "obj-14", 0 ]
				}

			}
, 			{
				"patchline" : 				{
					"destination" : [ "obj-16", 1 ],
					"disabled" : 0,
					"hidden" : 1,
					"source" : [ "obj-15", 1 ]
				}

			}
, 			{
				"patchline" : 				{
					"destination" : [ "obj-12", 0 ],
					"disabled" : 0,
					"hidden" : 1,
					"source" : [ "obj-152", 0 ]
				}

			}
, 			{
				"patchline" : 				{
					"destination" : [ "obj-19", 1 ],
					"disabled" : 0,
					"hidden" : 1,
					"source" : [ "obj-16", 1 ]
				}

			}
, 			{
				"patchline" : 				{
					"destination" : [ "obj-22", 1 ],
					"disabled" : 0,
					"hidden" : 1,
					"source" : [ "obj-19", 1 ]
				}

			}
, 			{
				"patchline" : 				{
					"destination" : [ "obj-26", 0 ],
					"disabled" : 0,
					"hidden" : 1,
					"source" : [ "obj-20", 0 ]
				}

			}
, 			{
				"patchline" : 				{
					"destination" : [ "obj-27", 1 ],
					"disabled" : 0,
					"hidden" : 1,
					"source" : [ "obj-22", 1 ]
				}

			}
, 			{
				"patchline" : 				{
					"destination" : [ "obj-21", 0 ],
					"disabled" : 0,
					"hidden" : 0,
					"source" : [ "obj-23", 0 ]
				}

			}
, 			{
				"patchline" : 				{
					"destination" : [ "obj-6", 1 ],
					"disabled" : 0,
					"hidden" : 1,
					"source" : [ "obj-24", 1 ]
				}

			}
, 			{
				"patchline" : 				{
					"destination" : [ "obj-24", 1 ],
					"disabled" : 0,
					"hidden" : 1,
					"source" : [ "obj-25", 1 ]
				}

			}
, 			{
				"patchline" : 				{
					"destination" : [ "obj-23", 0 ],
					"disabled" : 0,
					"hidden" : 0,
					"source" : [ "obj-26", 0 ]
				}

			}
, 			{
				"patchline" : 				{
					"destination" : [ "obj-25", 1 ],
					"disabled" : 0,
					"hidden" : 1,
					"source" : [ "obj-27", 1 ]
				}

			}
, 			{
				"patchline" : 				{
					"destination" : [ "obj-14", 0 ],
					"disabled" : 0,
					"hidden" : 1,
					"source" : [ "obj-3", 0 ]
				}

			}
, 			{
				"patchline" : 				{
					"destination" : [ "obj-148", 0 ],
					"disabled" : 0,
					"hidden" : 1,
					"source" : [ "obj-4", 1 ]
				}

			}
, 			{
				"patchline" : 				{
					"destination" : [ "obj-149", 0 ],
					"disabled" : 0,
					"hidden" : 1,
					"source" : [ "obj-4", 1 ]
				}

			}
, 			{
				"patchline" : 				{
					"destination" : [ "obj-186", 0 ],
					"disabled" : 0,
					"hidden" : 1,
					"source" : [ "obj-4", 1 ]
				}

			}
, 			{
				"patchline" : 				{
					"destination" : [ "obj-187", 0 ],
					"disabled" : 0,
					"hidden" : 1,
					"source" : [ "obj-4", 2 ]
				}

			}
, 			{
				"patchline" : 				{
					"destination" : [ "obj-193", 0 ],
					"disabled" : 0,
					"hidden" : 1,
					"source" : [ "obj-4", 2 ]
				}

			}
, 			{
				"patchline" : 				{
					"destination" : [ "obj-194", 0 ],
					"disabled" : 0,
					"hidden" : 1,
					"source" : [ "obj-4", 1 ]
				}

			}
, 			{
				"patchline" : 				{
					"destination" : [ "obj-201", 0 ],
					"disabled" : 0,
					"hidden" : 0,
					"source" : [ "obj-4", 0 ]
				}

			}
, 			{
				"patchline" : 				{
					"destination" : [ "obj-53", 0 ],
					"disabled" : 0,
					"hidden" : 1,
					"source" : [ "obj-4", 2 ]
				}

			}
, 			{
				"patchline" : 				{
					"destination" : [ "obj-55", 0 ],
					"disabled" : 0,
					"hidden" : 1,
					"source" : [ "obj-4", 2 ]
				}

			}
, 			{
				"patchline" : 				{
					"destination" : [ "obj-10", 0 ],
					"disabled" : 0,
					"hidden" : 0,
					"source" : [ "obj-5", 0 ]
				}

			}
, 			{
				"patchline" : 				{
					"destination" : [ "obj-14", 1 ],
					"disabled" : 0,
					"hidden" : 1,
					"source" : [ "obj-6", 1 ]
				}

			}
, 			{
				"patchline" : 				{
					"destination" : [ "obj-13", 1 ],
					"disabled" : 0,
					"hidden" : 1,
					"source" : [ "obj-8", 1 ]
				}

			}
 ],
		"dependency_cache" : [ 			{
				"name" : "SDK.float.GUI.maxpat",
				"type" : "JSON",
				"implicit" : 1
			}
, 			{
				"name" : "r.d2.maxpat",
				"type" : "JSON",
				"implicit" : 1
			}
, 			{
				"name" : "vd.maxpat",
				"type" : "JSON",
				"implicit" : 1
			}
, 			{
				"name" : "sw.d2.maxpat",
				"type" : "JSON",
				"implicit" : 1
			}
, 			{
				"name" : "s.d2.maxpat",
				"type" : "JSON",
				"implicit" : 1
			}
, 			{
				"name" : "SDK.synth.GUI.system.maxpat",
				"type" : "JSON",
				"implicit" : 1
			}
, 			{
				"name" : "SDK.extraWindow.maxpat",
				"type" : "JSON",
				"implicit" : 1
			}
, 			{
				"name" : "SDK.float.maxpat",
				"type" : "JSON",
				"implicit" : 1
			}
, 			{
				"name" : "SDK.int.GUI.maxpat",
				"type" : "JSON",
				"implicit" : 1
			}
, 			{
				"name" : "panel.mxo",
				"type" : "iLaX"
			}
, 			{
				"name" : "button.mxo",
				"type" : "iLaX"
			}
, 			{
				"name" : "comment.mxo",
				"type" : "iLaX"
			}
, 			{
				"name" : "textbutton.mxo",
				"type" : "iLaX"
			}
, 			{
				"name" : "number.mxo",
				"type" : "iLaX"
			}
, 			{
				"name" : "message.mxo",
				"type" : "iLaX"
			}
, 			{
				"name" : "combine.mxo",
				"type" : "iLaX"
			}
, 			{
				"name" : "prepend.mxo",
				"type" : "iLaX"
			}
, 			{
				"name" : "toggle.mxo",
				"type" : "iLaX"
			}
, 			{
				"name" : "patcherargs.mxo",
				"type" : "iLaX"
			}
, 			{
				"name" : "tosymbol.mxo",
				"type" : "iLaX"
			}
, 			{
				"name" : "fromsymbol.mxo",
				"type" : "iLaX"
			}
, 			{
				"name" : "append.mxo",
				"type" : "iLaX"
			}
, 			{
				"name" : "iter.mxo",
				"type" : "iLaX"
			}
, 			{
				"name" : "sprintf.mxo",
				"type" : "iLaX"
			}
, 			{
				"name" : "zl.mxo",
				"type" : "iLaX"
			}
, 			{
				"name" : "hint.mxo",
				"type" : "iLaX"
			}
, 			{
				"name" : "loadmess.mxo",
				"type" : "iLaX"
			}
, 			{
				"name" : "deferlow.mxo",
				"type" : "iLaX"
			}
, 			{
				"name" : "coll.mxo",
				"type" : "iLaX"
			}
, 			{
				"name" : "pak.mxo",
				"type" : "iLaX"
			}
, 			{
				"name" : "modifiers.mxo",
				"type" : "iLaX"
			}
, 			{
				"name" : "forward.mxo",
				"type" : "iLaX"
			}
, 			{
				"name" : "speedlim.mxo",
				"type" : "iLaX"
			}
, 			{
				"name" : "vexpr.mxo",
				"type" : "iLaX"
			}
, 			{
				"name" : "swatch.mxo",
				"type" : "iLaX"
			}
, 			{
				"name" : "multislider.mxo",
				"type" : "iLaX"
			}
, 			{
				"name" : "minimum.mxo",
				"type" : "iLaX"
			}
, 			{
				"name" : "maximum.mxo",
				"type" : "iLaX"
			}
, 			{
				"name" : "umenu.mxo",
				"type" : "iLaX"
			}
, 			{
				"name" : "number.mxo",
				"type" : "iLaX"
			}
 ]
	}

}
